<svg width="212" height="182" viewBox="0 0 212 182" fill="none" xmlns="http://www.w3.org/2000/svg">
<path d="M211.062 1.2013C205.476 2.46318 200.08 4.41338 194.991 7.01363C193.231 7.93137 191.509 8.92556 190.055 10.2257C188.295 11.7552 186.956 13.7055 185.731 15.6557C183.856 18.6001 182.134 21.7739 181.561 25.2154C176.471 24.3359 170.961 24.9859 166.522 27.6244C161.701 30.4923 157.913 35.8075 158.602 41.3522C153.666 41.1992 148.921 43.6465 145.821 47.5086C142.76 51.3708 141.229 56.3036 140.732 61.1982C140.502 59.7451 140.235 57.9479 139.699 56.5713C138.589 53.8563 137.518 51.1414 136.408 48.3882C133.844 42.0023 137.9 34.3927 138.627 27.5097C138.972 23.9917 139.201 19.8619 141.115 16.7646C141.956 15.388 143.066 14.2026 144.367 13.2466C144.75 12.9789 148.308 11.3347 148.308 11.2964C148.117 13.1701 148.002 15.0438 148.002 16.9175C151.255 11.7935 155.846 8.84912 161.51 6.8607C177.389 1.35429 194.532 -1.89606 211.062 1.2013Z" fill="#01092E"/>
<path d="M142.72 47.621C142.261 49.6859 143.064 51.8272 144.212 53.6245C145.322 55.4217 146.738 57.0277 147.733 58.9014C149.148 61.5782 149.608 64.752 151.33 67.2375C149.722 65.9374 148.077 64.6372 146.202 63.7577C144.327 62.8783 142.146 62.4959 140.156 63.1077C138.549 63.6048 137.172 64.7138 135.871 65.8227C135.182 66.3963 134.531 66.9316 133.843 67.5052C133.575 67.7346 133.269 68.0023 133.116 68.3082C132.924 68.6523 132.924 69.0348 132.924 69.4171C132.963 71.5585 134.034 73.6999 135.718 75C133.307 74.6941 130.781 74.35 128.753 73.0116C127.529 72.2086 126.572 71.1379 125.501 70.1054C124.238 68.8818 122.861 67.7729 121.827 66.358C119.225 62.84 119.187 58.0984 119.417 53.7392C116.356 50.9095 114.06 47.6592 111.993 44.0647C113.524 45.4031 115.437 46.2443 117.389 46.7414C119.34 47.2385 121.368 47.4298 123.396 47.621C125.96 43.1853 129.787 39.4378 131.47 34.6197C131.049 36.3787 131.011 38.2142 130.896 40.0114C130.858 40.6615 130.858 41.2733 130.973 41.9233C131.126 42.8793 131.547 43.7588 131.968 44.6766C132.389 43.9118 133.384 43.6823 134.187 43.3C136.713 42.0763 138.32 39.5143 140.73 38.0995C141.036 40.585 141.342 43.0705 141.649 45.5942C141.763 46.5885 142.031 46.818 142.72 47.621Z" fill="#01092E"/>
<path d="M124.202 54.5405C121.102 53.3551 117.238 54.8082 114.521 52.9345C113.679 52.3609 113.067 51.4813 112.34 50.793C110.618 49.1105 108.207 48.0399 107.021 45.9367C106.37 44.7896 106.179 43.4894 105.835 42.2275C104.266 36.4152 99.674 31.9795 95.3118 27.8115C95.8475 28.9586 95.8094 30.5264 95.465 31.7501C92.1742 30.3735 88.9983 28.6527 85.6692 27.3143C84.483 26.8172 83.2968 26.3202 82.034 26.1672C80.6565 25.976 79.2023 26.1289 77.8248 26.3201C71.2432 27.1232 63.1694 28.3086 57.3149 31.6353C56.1287 32.3236 55.0191 33.1649 54.0625 34.1591C60.1083 33.9679 66.1158 35.8798 71.1667 39.2066C72.9269 40.3538 74.6107 41.7687 75.6056 43.6424C76.6004 45.5161 76.7916 47.9251 75.6436 49.6841C81.5747 48.6134 88.0033 49.5694 92.9777 52.9345C97.9904 56.2995 101.358 62.1882 101.128 68.1917C105.261 65.0562 110.618 63.5648 115.784 64.0619C120.949 64.5973 125.885 67.1593 129.291 71.0597C128.373 66.1268 127.378 61.194 126.306 56.2612C126.192 55.3435 125.043 54.8464 124.202 54.5405Z" fill="#01092E"/>
<circle cx="121.943" cy="52.0066" r="1.50171" fill="#F5E160"/>
<circle cx="128.834" cy="49.0037" r="1.50171" fill="#F5E160"/>
<path d="M121.945 55.7256L122.784 55.3094L123.369 57.5406L121.945 55.7256Z" fill="#F5E160"/>
<path d="M129.496 51.9004L130.334 51.4842L130.92 53.7154L129.496 51.9004Z" fill="#F5E160"/>
<path opacity="0.24" d="M120.629 51.3309L122.387 53.4104L64.5718 128.425L-0.00149521 131.014L120.629 51.3309Z" fill="url(#paint0_linear_1639_2877)"/>
<path opacity="0.24" d="M127.34 48.9458L129.763 50.1884L104.432 141.046L45.8318 168.293L127.34 48.9458Z" fill="url(#paint1_linear_1639_2877)"/>
<defs>
<linearGradient id="paint0_linear_1639_2877" x1="105.456" y1="39.4988" x2="118.601" y2="141.774" gradientUnits="userSpaceOnUse">
<stop offset="0.150165" stop-color="#F5E160"/>
<stop offset="0.728943" stop-color="#F5E160" stop-opacity="0"/>
</linearGradient>
<linearGradient id="paint1_linear_1639_2877" x1="120.868" y1="54.4932" x2="131.204" y2="131.484" gradientUnits="userSpaceOnUse">
<stop offset="0.139808" stop-color="#F5E160"/>
<stop offset="1" stop-color="#F5E160" stop-opacity="0"/>
</linearGradient>
</defs>
</svg>
