<svg width="1440" height="1024" viewBox="0 0 1440 1024" fill="none" xmlns="http://www.w3.org/2000/svg">
<g clip-path="url(#clip0_1647_757)">
<rect width="1440" height="1024" rx="24" fill="#02020C"/>
<g filter="url(#filter0_f_1647_757)">
<circle cx="651" cy="385" r="364" fill="#030E46"/>
</g>
<path d="M421 835.196L573.424 829.046L582.79 823.611" stroke="black" stroke-width="4.94" stroke-miterlimit="10" stroke-linecap="round"/>
<path d="M559.537 801.573L561.195 843.179L556 869.923L563.332 896.434L564.796 933.008" stroke="black" stroke-width="4.94" stroke-miterlimit="10" stroke-linecap="round"/>
<path d="M528.551 802.822L533.797 934.257" stroke="black" stroke-width="4.94" stroke-miterlimit="10" stroke-linecap="round"/>
<path d="M497.547 804.069L502.806 935.504" stroke="black" stroke-width="4.94" stroke-miterlimit="10" stroke-linecap="round"/>
<path d="M466.562 805.317L471.822 936.752" stroke="black" stroke-width="4.94" stroke-miterlimit="10" stroke-linecap="round"/>
<path d="M504.233 809.037L498.287 805.721C498.09 805.607 497.866 805.547 497.639 805.547C497.412 805.547 497.188 805.607 496.991 805.721L491.33 809.505C491.108 809.643 490.85 809.711 490.589 809.699C490.328 809.687 490.077 809.597 489.869 809.439C489.66 809.282 489.504 809.065 489.42 808.817C489.336 808.569 489.329 808.301 489.4 808.049L495.76 788.351C495.849 788.109 496.007 787.898 496.215 787.746C496.423 787.594 496.671 787.508 496.928 787.498C497.185 787.488 497.44 787.555 497.658 787.691C497.877 787.827 498.051 788.025 498.157 788.26L506.072 807.373C506.189 807.625 506.222 807.908 506.167 808.181C506.112 808.453 505.971 808.701 505.765 808.887C505.559 809.073 505.299 809.188 505.024 809.215C504.748 809.242 504.471 809.18 504.233 809.037V809.037Z" fill="black"/>
<path d="M535.231 807.788L529.272 804.472C529.075 804.358 528.852 804.298 528.625 804.298C528.397 804.298 528.174 804.358 527.977 804.472L522.303 808.256C522.081 808.39 521.825 808.454 521.566 808.44C521.308 808.426 521.06 808.335 520.854 808.178C520.647 808.022 520.493 807.807 520.409 807.561C520.326 807.315 520.317 807.05 520.385 806.8L526.746 787.102C526.836 786.864 526.995 786.657 527.201 786.508C527.408 786.359 527.654 786.274 527.908 786.265C528.162 786.255 528.414 786.321 528.631 786.453C528.848 786.586 529.022 786.78 529.13 787.011L537.058 806.124C537.172 806.374 537.203 806.655 537.147 806.924C537.092 807.194 536.953 807.439 536.749 807.624C536.546 807.809 536.29 807.925 536.017 807.954C535.744 807.984 535.469 807.926 535.231 807.788V807.788Z" fill="black"/>
<path d="M566.22 806.54L560.261 803.224C560.064 803.11 559.84 803.05 559.613 803.05C559.385 803.05 559.162 803.11 558.965 803.224L553.291 807.008C553.069 807.142 552.813 807.206 552.555 807.192C552.296 807.178 552.048 807.087 551.842 806.93C551.636 806.774 551.481 806.559 551.397 806.313C551.314 806.067 551.306 805.802 551.374 805.552L557.734 785.854C557.823 785.612 557.981 785.401 558.189 785.249C558.397 785.097 558.645 785.011 558.902 785.001C559.159 784.991 559.413 785.058 559.632 785.194C559.851 785.33 560.025 785.528 560.131 785.763L568.046 804.876C568.16 805.126 568.191 805.407 568.136 805.676C568.08 805.946 567.941 806.191 567.738 806.376C567.534 806.561 567.278 806.677 567.005 806.706C566.732 806.736 566.457 806.677 566.22 806.54V806.54Z" fill="black"/>
<path d="M473.27 810.869L467.311 807.554C467.114 807.44 466.891 807.379 466.664 807.379C466.436 807.379 466.213 807.44 466.016 807.554L460.342 811.337C460.12 811.471 459.864 811.535 459.605 811.521C459.347 811.507 459.099 811.416 458.893 811.26C458.686 811.103 458.532 810.888 458.448 810.642C458.365 810.397 458.356 810.131 458.424 809.881L464.798 790.235C464.885 789.992 465.042 789.781 465.249 789.627C465.457 789.474 465.705 789.386 465.962 789.375C466.219 789.364 466.473 789.43 466.693 789.565C466.913 789.699 467.087 789.897 467.195 790.131L475.11 809.257C475.209 809.507 475.228 809.781 475.165 810.042C475.102 810.303 474.959 810.539 474.758 810.715C474.556 810.892 474.305 811.002 474.038 811.029C473.772 811.057 473.504 811.001 473.27 810.869Z" fill="black"/>
<path d="M956.394 763.197L803.983 757.047L792 760.349" stroke="#070A13" stroke-width="4.94" stroke-miterlimit="10" stroke-linecap="round"/>
<path d="M817.867 729.573L811.297 871" stroke="#070A13" stroke-width="4.94" stroke-miterlimit="10" stroke-linecap="round"/>
<path d="M848.857 730.822L843.598 862.257" stroke="#070A13" stroke-width="4.94" stroke-miterlimit="10" stroke-linecap="round"/>
<path d="M879.844 732.069L874.598 863.504" stroke="#070A13" stroke-width="4.94" stroke-miterlimit="10" stroke-linecap="round"/>
<path d="M910.846 733.317L905.586 864.752" stroke="#070A13" stroke-width="4.94" stroke-miterlimit="10" stroke-linecap="round"/>
<path d="M941.834 734.565L936.574 866" stroke="#070A13" stroke-width="4.94" stroke-miterlimit="10" stroke-linecap="round"/>
<path d="M873.159 737.037L879.118 733.721C879.315 733.607 879.538 733.547 879.766 733.547C879.993 733.547 880.217 733.607 880.413 733.721L886.088 737.505C886.309 737.638 886.566 737.703 886.824 737.689C887.082 737.675 887.331 737.584 887.537 737.427C887.743 737.27 887.898 737.055 887.981 736.81C888.065 736.564 888.073 736.299 888.005 736.049L881.735 716.403C881.647 716.16 881.488 715.95 881.28 715.798C881.072 715.646 880.824 715.56 880.567 715.55C880.31 715.54 880.056 715.607 879.837 715.743C879.618 715.879 879.445 716.077 879.338 716.312L871.371 735.424C871.283 735.668 871.269 735.933 871.332 736.184C871.394 736.436 871.53 736.663 871.723 736.836C871.915 737.01 872.154 737.121 872.41 737.157C872.666 737.193 872.927 737.151 873.159 737.037Z" fill="#070A13"/>
<path d="M842.173 735.789L848.132 732.473C848.329 732.359 848.552 732.299 848.78 732.299C849.007 732.299 849.231 732.359 849.427 732.473L855.102 736.257C855.323 736.39 855.58 736.454 855.838 736.441C856.096 736.427 856.344 736.336 856.551 736.179C856.757 736.022 856.912 735.807 856.995 735.562C857.079 735.316 857.087 735.051 857.019 734.8L850.645 715.155C850.557 714.912 850.399 714.702 850.191 714.55C849.983 714.398 849.734 714.311 849.477 714.302C849.22 714.292 848.966 714.359 848.747 714.495C848.528 714.631 848.355 714.829 848.249 715.064L840.333 734.176C840.235 734.426 840.216 734.701 840.279 734.962C840.342 735.223 840.484 735.458 840.686 735.635C840.887 735.812 841.139 735.921 841.405 735.949C841.671 735.976 841.94 735.92 842.173 735.789V735.789Z" fill="#070A13"/>
<path d="M811.187 734.54L817.133 731.224C817.33 731.11 817.553 731.05 817.781 731.05C818.008 731.05 818.232 731.11 818.429 731.224L824.103 735.008C824.324 735.142 824.581 735.206 824.839 735.192C825.097 735.178 825.346 735.087 825.552 734.93C825.758 734.774 825.913 734.559 825.996 734.313C826.08 734.067 826.088 733.802 826.02 733.552L819.659 713.854C819.571 713.612 819.413 713.401 819.205 713.249C818.997 713.097 818.749 713.011 818.491 713.001C818.234 712.991 817.98 713.058 817.761 713.194C817.543 713.33 817.369 713.528 817.263 713.763L809.347 732.876C809.231 733.128 809.197 733.411 809.253 733.683C809.308 733.956 809.449 734.204 809.655 734.39C809.86 734.576 810.12 734.691 810.396 734.718C810.672 734.745 810.949 734.683 811.187 734.54V734.54Z" fill="#070A13"/>
<path d="M904.136 738.87L910.082 735.555C910.279 735.441 910.503 735.381 910.73 735.381C910.958 735.381 911.181 735.441 911.378 735.555L917.052 739.338C917.274 739.472 917.53 739.536 917.788 739.522C918.047 739.509 918.295 739.417 918.501 739.261C918.707 739.104 918.862 738.889 918.946 738.643C919.029 738.398 919.037 738.133 918.969 737.882L912.608 718.185C912.522 717.941 912.365 717.73 912.157 717.577C911.95 717.423 911.702 717.336 911.445 717.324C911.188 717.313 910.933 717.379 910.714 717.514C910.494 717.649 910.319 717.846 910.212 718.081L902.297 737.206C902.18 737.458 902.147 737.741 902.202 738.014C902.257 738.286 902.398 738.534 902.604 738.72C902.81 738.906 903.07 739.022 903.345 739.049C903.621 739.076 903.898 739.013 904.136 738.87V738.87Z" fill="#070A13"/>
<path d="M935.122 740.118L941.081 736.803C941.278 736.689 941.502 736.629 941.729 736.629C941.957 736.629 942.18 736.689 942.377 736.803L948.051 740.586C948.273 740.72 948.529 740.784 948.787 740.77C949.046 740.757 949.294 740.665 949.5 740.509C949.706 740.352 949.861 740.137 949.945 739.892C950.028 739.646 950.036 739.381 949.968 739.13L943.608 719.433C943.521 719.189 943.364 718.978 943.156 718.825C942.949 718.671 942.701 718.584 942.444 718.573C942.187 718.561 941.932 718.627 941.713 718.762C941.493 718.897 941.318 719.094 941.211 719.329L933.296 738.454C933.182 738.705 933.151 738.985 933.206 739.255C933.262 739.525 933.401 739.77 933.604 739.955C933.808 740.14 934.064 740.255 934.337 740.285C934.61 740.314 934.885 740.256 935.122 740.118V740.118Z" fill="#070A13"/>
<path d="M707.046 880.999C707.461 881.299 707.959 881.46 708.47 881.46C708.991 881.46 709.498 881.295 709.918 880.988C710.339 880.681 710.651 880.248 710.809 879.752C710.968 879.256 710.965 878.722 710.8 878.227C710.636 877.733 710.319 877.304 709.895 877.002L682.901 857.692V854.165C683.116 854.166 683.328 854.121 683.524 854.034C683.721 853.947 683.896 853.819 684.04 853.66C684.184 853.501 684.293 853.313 684.36 853.109C684.427 852.904 684.451 852.688 684.429 852.474C684.374 852.087 684.18 851.732 683.883 851.478C683.586 851.224 683.206 851.087 682.815 851.094H681.953V827.51C682.202 827.509 682.446 827.439 682.658 827.307C682.869 827.175 683.039 826.986 683.148 826.762C683.287 826.45 683.305 826.096 683.199 825.771C683.093 825.446 682.87 825.172 682.574 825.002L681.534 824.358L677.56 806.497C677.56 806.345 677.499 806.198 677.392 806.09C677.284 805.983 677.138 805.922 676.986 805.922C676.833 805.922 676.687 805.983 676.579 806.09C676.472 806.198 676.411 806.345 676.411 806.497L672.437 824.358L671.397 824.996C671.1 825.168 670.877 825.444 670.771 825.772C670.665 826.099 670.683 826.454 670.823 826.768C670.933 826.991 671.103 827.178 671.315 827.308C671.526 827.438 671.769 827.506 672.018 827.504V840.274L665.126 835.327V813.854C665.526 813.85 665.92 813.749 666.274 813.561C666.558 813.408 666.81 813.201 667.014 812.951C667.218 812.701 667.371 812.413 667.464 812.103C667.557 811.794 667.588 811.469 667.555 811.148C667.522 810.826 667.427 810.515 667.274 810.23L650.584 779.169C650.232 778.514 649.71 777.966 649.073 777.584C648.436 777.203 647.708 777.001 646.965 777V777C646.223 777.001 645.495 777.203 644.857 777.584C644.22 777.966 643.698 778.514 643.347 779.169L626.663 810.23C626.51 810.515 626.414 810.826 626.381 811.148C626.349 811.469 626.38 811.794 626.472 812.103C626.565 812.413 626.718 812.701 626.922 812.951C627.126 813.201 627.378 813.408 627.662 813.561C628.016 813.747 628.411 813.843 628.811 813.843V835.35L621.919 840.297V827.533C622.168 827.533 622.413 827.462 622.624 827.328C622.836 827.195 623.005 827.005 623.113 826.779C623.251 826.467 623.268 826.116 623.162 825.792C623.056 825.468 622.834 825.195 622.539 825.025L621.494 824.381L617.519 806.52C617.519 806.368 617.459 806.221 617.351 806.113C617.243 806.006 617.097 805.945 616.945 805.945C616.793 805.945 616.647 806.006 616.539 806.113C616.431 806.221 616.371 806.368 616.371 806.52L612.396 824.381L611.363 825.019C611.066 825.192 610.844 825.468 610.738 825.795C610.632 826.122 610.65 826.476 610.788 826.791C610.899 827.013 611.069 827.2 611.28 827.33C611.492 827.46 611.735 827.528 611.983 827.527V851.111H611.121C610.73 851.103 610.35 851.239 610.052 851.494C609.755 851.748 609.561 852.103 609.507 852.492C609.486 852.705 609.509 852.922 609.576 853.126C609.643 853.33 609.752 853.518 609.896 853.677C610.04 853.837 610.216 853.964 610.412 854.051C610.608 854.138 610.821 854.183 611.035 854.183V857.709L584.042 877.019C583.776 877.206 583.55 877.445 583.377 877.72C583.203 877.996 583.087 878.303 583.033 878.624C582.98 878.945 582.991 879.274 583.065 879.591C583.14 879.908 583.276 880.207 583.467 880.47C583.695 880.788 583.995 881.048 584.343 881.227C584.69 881.406 585.075 881.499 585.466 881.5C585.977 881.5 586.476 881.339 586.89 881.04L587.137 880.861V918.895H585.552C585.037 918.895 584.544 919.1 584.179 919.464C583.815 919.829 583.611 920.323 583.611 920.839V932.056C583.611 932.571 583.815 933.066 584.179 933.431C584.544 933.795 585.037 934 585.552 934H708.384C708.899 934 709.393 933.795 709.757 933.431C710.121 933.066 710.325 932.571 710.325 932.056V920.839C710.324 920.324 710.119 919.83 709.755 919.466C709.391 919.102 708.899 918.896 708.384 918.895H707.775L706.799 917.882V880.821L707.046 880.999Z" fill="black"/>
<path d="M917.665 857.006H911.613L897.015 822.577C896.604 821.608 895.918 820.782 895.042 820.198C894.166 819.615 893.139 819.301 892.087 819.294H869.367V784.027H872.856C874.302 784.027 875.688 783.453 876.711 782.43C877.733 781.408 878.307 780.022 878.307 778.576C878.307 777.131 877.733 775.744 876.711 774.722C875.688 773.7 874.302 773.125 872.856 773.125H870.885L858.525 738.449C858.242 737.656 857.721 736.969 857.033 736.484C856.344 735.999 855.523 735.738 854.681 735.738C853.838 735.738 853.017 735.999 852.328 736.484C851.64 736.969 851.119 737.656 850.836 738.449L838.447 773.125H836.475C835.03 773.125 833.643 773.7 832.621 774.722C831.599 775.744 831.024 777.131 831.024 778.576C831.024 780.022 831.599 781.408 832.621 782.43C833.643 783.453 835.03 784.027 836.475 784.027H839.964V819.304H813.667V808.984L815.638 810.256C816.578 810.892 817.686 811.235 818.822 811.241C820.081 811.252 821.311 810.855 822.325 810.108C823.34 809.362 824.085 808.306 824.449 807.101C824.813 805.895 824.777 804.603 824.345 803.42C823.913 802.237 823.11 801.225 822.055 800.537L813.509 794.978L809.823 786.629L821.069 773.904C821.655 773.242 822.039 772.426 822.175 771.552C822.312 770.679 822.195 769.785 821.838 768.976L812.1 746.907V728.307H802.844V740.549L790.779 743.506L781.041 721.456L786.462 709.224C786.77 708.525 786.938 707.772 786.955 707.009C786.972 706.245 786.838 705.486 786.562 704.773C786.286 704.061 785.872 703.411 785.344 702.859C784.816 702.306 784.184 701.864 783.485 701.556C782.786 701.248 782.034 701.08 781.27 701.063C780.506 701.046 779.747 701.179 779.035 701.456C778.323 701.732 777.672 702.146 777.12 702.674C776.568 703.202 776.125 703.833 775.817 704.532L774.743 707.026L773.619 704.483C773.308 703.78 772.861 703.146 772.304 702.615C771.748 702.085 771.092 701.67 770.375 701.393C769.658 701.116 768.893 700.983 768.125 701.002C767.356 701.02 766.599 701.19 765.896 701.501C765.193 701.813 764.559 702.259 764.028 702.816C763.498 703.373 763.083 704.028 762.806 704.745C762.529 705.462 762.396 706.227 762.415 706.996C762.433 707.764 762.603 708.521 762.914 709.224L768.326 721.486L735.877 794.978L727.43 800.537C726.792 800.957 726.243 801.499 725.814 802.131C725.385 802.763 725.085 803.474 724.931 804.222C724.777 804.97 724.771 805.741 724.915 806.492C725.059 807.242 725.349 807.957 725.769 808.595C726.189 809.233 726.731 809.782 727.363 810.211C727.996 810.64 728.706 810.94 729.454 811.094C730.203 811.248 730.974 811.254 731.724 811.11C732.474 810.966 733.189 810.676 733.827 810.256L735.799 808.984V823.897L715.366 835.223V810.985C715.369 810.542 715.254 810.106 715.03 809.723L711.847 804.135V794.229H713.315C713.577 794.229 713.828 794.125 714.012 793.94C714.197 793.755 714.301 793.504 714.301 793.243V789.064C714.301 788.802 714.197 788.552 714.012 788.367C713.828 788.182 713.577 788.078 713.315 788.078H692.843C692.582 788.078 692.331 788.182 692.146 788.367C691.961 788.552 691.857 788.802 691.857 789.064V793.194C691.857 793.455 691.961 793.706 692.146 793.891C692.331 794.076 692.582 794.179 692.843 794.179H694.302V804.085L691.128 809.763C690.905 810.146 690.789 810.581 690.793 811.025V848.796L676.008 857.006H665.333C664.51 856.924 663.68 857.014 662.895 857.272C662.11 857.531 661.388 857.95 660.775 858.505C660.162 859.059 659.672 859.736 659.337 860.491C659.001 861.247 658.828 862.064 658.828 862.891C658.828 863.717 659.001 864.534 659.337 865.29C659.672 866.045 660.162 866.722 660.775 867.276C661.388 867.831 662.11 868.251 662.895 868.509C663.68 868.767 664.51 868.858 665.333 868.775H678.147V922.682H676.56C675.72 922.682 674.914 923.015 674.319 923.608C673.724 924.201 673.388 925.006 673.386 925.846V951.473C673.387 951.889 673.47 952.3 673.63 952.683C673.791 953.067 674.025 953.415 674.319 953.707C674.614 954 674.964 954.232 675.348 954.39C675.732 954.548 676.144 954.628 676.56 954.627H744.285V954.657H805.101V954.568H906.419C907.256 954.568 908.059 954.236 908.652 953.645C909.245 953.054 909.58 952.251 909.583 951.414V925.786C909.583 924.947 909.249 924.142 908.656 923.549C908.062 922.956 907.258 922.622 906.419 922.622H904.851V895.004C905.565 894.908 906.22 894.554 906.692 894.01C907.164 893.465 907.42 892.767 907.414 892.047V868.775H917.665C918.487 868.858 919.318 868.767 920.103 868.509C920.888 868.251 921.61 867.831 922.223 867.276C922.836 866.722 923.326 866.045 923.661 865.29C923.997 864.534 924.17 863.717 924.17 862.891C924.17 862.064 923.997 861.247 923.661 860.491C923.326 859.736 922.836 859.059 922.223 858.505C921.61 857.95 920.888 857.531 920.103 857.272C919.318 857.014 918.487 856.924 917.665 857.006V857.006ZM802.854 744.876V747.833C802.856 748.478 802.991 749.115 803.248 749.706L812.198 769.981L805.722 777.285L792.485 747.389L802.854 744.876Z" fill="black"/>
<g style="mix-blend-mode:hard-light">
<path d="M775.413 684.997L813.188 698.232C815.29 698.97 817.517 699.287 819.741 699.165C821.965 699.042 824.143 698.482 826.151 697.518C828.159 696.553 829.956 695.202 831.442 693.541C832.927 691.881 834.071 689.945 834.807 687.843V687.843C835.544 685.74 835.859 683.513 835.735 681.289C835.611 679.065 835.05 676.887 834.084 674.879C833.118 672.872 831.767 671.074 830.106 669.589C828.446 668.104 826.509 666.961 824.407 666.224L786.631 652.978C784.529 652.242 782.302 651.926 780.078 652.05C777.854 652.174 775.676 652.735 773.668 653.701C771.661 654.667 769.863 656.018 768.378 657.679C766.893 659.339 765.749 661.276 765.013 663.379C764.276 665.481 763.961 667.708 764.085 669.932C764.209 672.156 764.77 674.334 765.736 676.342C766.701 678.349 768.053 680.147 769.714 681.632C771.374 683.117 773.311 684.261 775.413 684.997Z" fill="#393136"/>
<path d="M852.467 687.374L850.755 721.813C850.618 724.883 849.447 727.817 847.434 730.139C845.42 732.461 842.682 734.034 839.662 734.605C836.642 735.175 833.518 734.709 830.796 733.281C828.074 731.854 825.915 729.549 824.667 726.741L810.494 695.321C809.308 692.693 808.651 689.856 808.561 686.974C808.472 684.092 808.95 681.22 809.97 678.522C810.99 675.825 812.531 673.355 814.506 671.253C816.48 669.152 818.849 667.459 821.478 666.273C826.787 663.878 832.829 663.689 838.277 665.749C843.725 667.809 848.131 671.948 850.526 677.257C851.956 680.431 852.62 683.896 852.467 687.374V687.374Z" fill="#393136"/>
<path d="M830.224 731.232C829.582 729.959 828.853 728.731 828.043 727.558V727.558C827.231 726.409 826.342 725.317 825.383 724.287C823.434 722.233 821.18 720.49 818.7 719.12C813.831 716.432 808.242 715.337 802.718 715.991C797.374 716.589 792.384 718.961 788.546 722.728V722.728C787.909 723.365 787.477 724.178 787.308 725.063C787.139 725.947 787.24 726.862 787.597 727.689C788.07 728.789 788.959 729.658 790.07 730.105C791.181 730.553 792.424 730.542 793.528 730.076L793.637 730.022C794.542 729.64 795.294 729.335 796.035 729.106C796.807 728.861 797.594 728.665 798.39 728.517C799.152 728.389 799.92 728.302 800.69 728.256C801.469 728.229 802.248 728.251 803.023 728.321C805.918 728.563 808.689 729.605 811.025 731.33V731.33C811.604 731.735 812.154 732.179 812.672 732.66C813.158 733.146 813.617 733.659 814.045 734.197C814.869 735.268 815.544 736.445 816.051 737.697C817.056 740.146 817.354 742.827 816.913 745.437C816.467 748.046 815.313 750.482 813.577 752.48C813.141 752.981 812.671 753.451 812.17 753.886C811.658 754.325 811.124 754.736 810.568 755.118C809.425 755.866 808.19 756.464 806.894 756.895C804.133 757.77 801.186 757.879 798.368 757.211C796.87 756.87 795.425 756.327 794.073 755.598L793.506 755.282C793.433 755.248 793.364 755.208 793.299 755.162L792.961 754.954C792.817 754.873 792.679 754.782 792.547 754.682L792.307 754.518L792.045 754.344H791.991C791.326 753.875 790.661 753.308 789.985 752.73L789.876 752.632C789.088 751.954 788.092 751.568 787.053 751.538C786.014 751.508 784.997 751.836 784.172 752.468C783.347 753.1 782.764 753.997 782.523 755.007C782.281 756.018 782.394 757.081 782.844 758.018C785.268 762.824 789.222 766.686 794.084 768.996C797.639 770.701 801.534 771.581 805.476 771.569C807.096 771.57 808.713 771.424 810.306 771.133C811.694 770.872 813.061 770.507 814.394 770.043C815.739 769.578 817.044 769.006 818.297 768.331C819.543 767.665 820.739 766.907 821.873 766.064V766.064C827.07 762.133 830.743 756.521 832.265 750.186C833.788 743.85 833.067 737.182 830.224 731.319V731.232Z" fill="#393136"/>
<path d="M838.143 759.915C838.143 759.653 838.077 759.403 838.034 759.141C837.99 758.879 838.034 758.956 838.034 758.825L837.957 758.334L837.794 757.451L837.63 756.688L837.38 755.685V755.62C836.998 754.228 836.51 752.869 835.919 751.553C835.324 750.237 834.636 748.965 833.858 747.748C833.065 746.539 832.187 745.388 831.231 744.303C830.27 743.233 829.235 742.232 828.135 741.305C827.24 740.573 826.305 739.893 825.333 739.267L821.397 736.792L821.681 749.155L817.527 753.516L818.977 755.184C820.68 757.144 821.811 759.535 822.248 762.095C822.358 762.744 822.427 763.4 822.455 764.058C822.467 764.731 822.441 765.404 822.378 766.075C822.384 766.151 822.384 766.227 822.378 766.303C822.378 766.402 822.378 766.5 822.378 766.565L822.313 767.001C822.313 767.099 822.313 767.197 822.313 767.285V767.492L822.193 768.037C822.028 768.695 821.824 769.343 821.583 769.977C820.525 772.645 818.762 774.974 816.481 776.715C815.278 777.652 813.954 778.422 812.545 779.004L811.945 779.244L811.727 779.32L811.378 779.44L810.888 779.604L810.604 779.68L810.321 779.767H810.245C809.471 779.985 808.642 780.127 807.737 780.291H807.595C806.535 780.475 805.57 781.02 804.864 781.833C804.158 782.646 803.754 783.678 803.721 784.754C803.688 785.83 804.027 786.885 804.681 787.74C805.335 788.596 806.265 789.199 807.312 789.448C809.027 789.855 810.783 790.059 812.545 790.059C816.166 790.043 819.738 789.231 823.011 787.682C828.095 785.28 832.291 781.335 835.003 776.41L835.494 775.483C835.617 775.258 835.726 775.029 835.821 774.796L836.159 774.077L836.475 773.292C836.573 773.063 836.682 772.801 836.78 772.518C837.243 771.18 837.607 769.81 837.87 768.418C838.139 767.022 838.307 765.609 838.372 764.189V764.189C838.397 762.76 838.32 761.332 838.143 759.915Z" fill="#393136"/>
<path d="M828.231 767.012C825.141 766.857 822.239 765.481 820.162 763.188C818.085 760.895 817.003 757.87 817.155 754.78L819.902 699.54L831.545 700.118C834.207 700.242 836.818 700.891 839.229 702.026C841.64 703.161 843.804 704.761 845.595 706.734C847.387 708.707 848.771 711.014 849.67 713.523C850.568 716.032 850.963 718.693 850.831 721.355L849.522 747.781C849.391 750.443 848.736 753.053 847.594 755.462C846.452 757.87 844.846 760.029 842.868 761.816C840.89 763.602 838.579 764.981 836.068 765.873C833.556 766.764 830.893 767.152 828.231 767.012Z" fill="#393136"/>
<path d="M782.697 692.402C797.109 677.99 797.109 654.624 782.697 640.213C768.286 625.801 744.92 625.801 730.508 640.213C716.097 654.624 716.097 677.99 730.508 692.402C744.92 706.813 768.286 706.813 782.697 692.402Z" fill="#42373B"/>
<path d="M663.851 817.805L627.875 781.828C626.802 780.754 625.527 779.901 624.124 779.32C622.721 778.738 621.217 778.438 619.698 778.438C618.18 778.438 616.676 778.738 615.273 779.32C613.87 779.901 612.595 780.754 611.522 781.828V781.828C609.354 783.997 608.137 786.938 608.137 790.005C608.137 793.071 609.354 796.012 611.522 798.181L647.498 834.158C649.667 836.325 652.608 837.543 655.675 837.543C658.741 837.543 661.682 836.325 663.851 834.158V834.158C664.926 833.084 665.778 831.81 666.36 830.407C666.942 829.004 667.241 827.5 667.241 825.981C667.241 824.462 666.942 822.958 666.36 821.555C665.778 820.152 664.926 818.878 663.851 817.805V817.805Z" fill="#42373B"/>
<path d="M646.889 818.143L610.913 854.119C608.745 856.288 607.527 859.229 607.527 862.296C607.527 865.362 608.745 868.303 610.913 870.472C611.986 871.547 613.26 872.399 614.663 872.981C616.066 873.562 617.57 873.862 619.089 873.862C620.608 873.862 622.112 873.562 623.515 872.981C624.918 872.399 626.192 871.547 627.265 870.472L663.242 834.496C664.319 833.424 665.174 832.15 665.757 830.747C666.34 829.343 666.641 827.839 666.641 826.319C666.641 824.8 666.34 823.295 665.757 821.892C665.174 820.489 664.319 819.215 663.242 818.143V818.143C662.169 817.068 660.894 816.216 659.491 815.634C658.088 815.052 656.584 814.753 655.065 814.753C653.547 814.753 652.043 815.052 650.64 815.634C649.237 816.216 647.962 817.068 646.889 818.143V818.143Z" fill="#42373B"/>
<path d="M620.679 873.819H601.754C599.125 873.819 596.605 872.775 594.746 870.916C592.888 869.058 591.844 866.537 591.844 863.909C591.847 858.772 593.889 853.846 597.521 850.213C601.154 846.581 606.079 844.539 611.216 844.536V844.536C613.762 844.533 616.284 845.032 618.637 846.005C620.99 846.977 623.128 848.403 624.929 850.203C626.73 852.002 628.159 854.138 629.134 856.49C630.109 858.842 630.611 861.363 630.611 863.909V863.909C630.611 865.212 630.354 866.503 629.855 867.706C629.355 868.91 628.623 870.003 627.701 870.924C626.778 871.844 625.683 872.574 624.478 873.071C623.274 873.567 621.983 873.822 620.679 873.819V873.819Z" fill="#524348"/>
<path d="M780.249 818.895H729.402C727.883 818.893 726.379 819.191 724.975 819.771C723.571 820.351 722.295 821.202 721.22 822.275C720.145 823.348 719.291 824.622 718.709 826.025C718.126 827.428 717.826 828.932 717.824 830.451V830.451C717.824 833.516 719.041 836.457 721.208 838.626C723.375 840.795 726.314 842.015 729.38 842.018H780.227C783.293 842.015 786.232 840.795 788.399 838.626C790.566 836.457 791.783 833.516 791.783 830.451V830.451C791.78 827.39 790.565 824.456 788.403 822.29C786.241 820.124 783.309 818.903 780.249 818.895V818.895Z" fill="#393136"/>
<path d="M768.684 830.451V881.297C768.686 884.363 769.906 887.302 772.075 889.469C774.244 891.636 777.185 892.853 780.251 892.853V892.853C783.315 892.85 786.252 891.632 788.419 889.465C790.585 887.299 791.804 884.361 791.807 881.297V830.451C791.804 827.387 790.585 824.449 788.419 822.282C786.252 820.116 783.315 818.897 780.251 818.895V818.895C777.185 818.895 774.244 820.112 772.075 822.279C769.906 824.445 768.686 827.385 768.684 830.451V830.451Z" fill="#393136"/>
<path d="M783.665 892.853H764.707C762.078 892.853 759.558 891.809 757.699 889.95C755.841 888.092 754.797 885.571 754.797 882.943V882.943C754.797 877.805 756.838 872.878 760.471 869.244C764.104 865.611 769.032 863.57 774.17 863.57V863.57C779.307 863.573 784.233 865.615 787.865 869.248C791.497 872.88 793.539 877.806 793.542 882.943C793.542 885.566 792.503 888.081 790.651 889.939C788.8 891.796 786.288 892.844 783.665 892.853V892.853Z" fill="#42373B"/>
<path d="M651.826 513.622L667.299 535.881C668.151 537.107 668.481 538.621 668.217 540.09C667.953 541.56 667.116 542.864 665.89 543.716L652.588 552.962C651.362 553.814 649.848 554.145 648.379 553.88C646.91 553.616 645.606 552.779 644.753 551.553L637.017 540.423C635.579 538.355 634.563 536.023 634.026 533.562C633.489 531.101 633.442 528.558 633.888 526.079C634.334 523.599 635.264 521.232 636.625 519.112C637.986 516.992 639.751 515.161 641.819 513.723L643.992 512.213C645.217 511.361 646.731 511.03 648.201 511.295C649.67 511.559 650.974 512.396 651.826 513.622Z" fill="#42373B"/>
<path d="M629.522 569.775L614.989 548.952C614.534 548.301 614.212 547.568 614.041 546.792C613.869 546.017 613.853 545.216 613.991 544.434C614.13 543.652 614.422 542.906 614.849 542.237C615.277 541.568 615.832 540.99 616.483 540.536V540.536C617.412 539.886 618.46 539.427 619.567 539.186C620.674 538.944 621.819 538.923 622.934 539.126C624.049 539.329 625.112 539.751 626.064 540.367C627.015 540.983 627.834 541.781 628.475 542.716L641.557 561.446C642.348 562.584 642.655 563.99 642.412 565.354C642.169 566.719 641.395 567.932 640.26 568.728L636.837 571.116C636.27 571.513 635.63 571.793 634.954 571.941C634.278 572.088 633.579 572.1 632.899 571.975C632.218 571.85 631.569 571.592 630.989 571.214C630.41 570.836 629.911 570.347 629.522 569.775V569.775Z" fill="#42373B"/>
<path d="M694.13 573.668L667.895 536.088L626.256 565.157L652.492 602.737L694.13 573.668Z" fill="#42373B"/>
<path d="M720.283 582.352L703.571 558.413C695.778 547.251 680.412 544.519 669.25 552.312L654.536 562.584C643.374 570.376 640.642 585.743 648.435 596.905L665.147 620.844C672.94 632.006 688.306 634.738 699.468 626.945L714.182 616.673C725.344 608.88 728.076 593.514 720.283 582.352Z" fill="#42373B"/>
<path d="M748.254 601.913L733.689 590.477C732.229 589.329 730.508 588.558 728.679 588.233C726.849 587.907 724.968 588.038 723.202 588.613L705.595 594.326C704.779 594.591 704.05 595.073 703.487 595.721C702.923 596.368 702.545 597.156 702.394 598C702.243 598.845 702.324 599.715 702.629 600.518C702.933 601.32 703.45 602.025 704.123 602.557L718.688 613.993C720.149 615.141 721.869 615.912 723.699 616.237C725.528 616.563 727.409 616.432 729.176 615.857L746.793 610.144C747.611 609.881 748.342 609.399 748.907 608.751C749.471 608.104 749.849 607.314 749.999 606.468C750.15 605.622 750.066 604.751 749.759 603.949C749.451 603.146 748.931 602.443 748.254 601.913V601.913Z" fill="#42373B"/>
<path d="M714.262 608.041H681.327C652.035 608.041 628.289 631.786 628.289 661.078V674.869C628.289 704.161 652.035 727.907 681.327 727.907H714.262C743.554 727.907 767.3 704.161 767.3 674.869V661.078C767.3 631.786 743.554 608.041 714.262 608.041Z" fill="#42373B"/>
<path d="M734.812 716.929H673.5V752.611H734.812V716.929Z" fill="#42373B"/>
<path d="M685.951 734.775H722.363C730.034 734.775 737.391 737.823 742.815 743.247C748.239 748.671 751.286 756.027 751.286 763.698V783.158H657.039V763.687C657.042 756.02 660.089 748.668 665.51 743.247C670.932 737.825 678.284 734.778 685.951 734.775V734.775Z" fill="#42373B"/>
<path d="M751.286 769.127C751.218 766.847 750.764 764.595 749.945 762.466C750.769 764.593 751.223 766.846 751.286 769.127Z" fill="#9B6CA9"/>
<path d="M751.282 769.128V819.931C751.348 822.872 750.825 825.796 749.745 828.532C748.664 831.269 747.048 833.762 744.991 835.865C742.934 837.968 740.478 839.639 737.766 840.78C735.055 841.921 732.142 842.508 729.201 842.508C726.259 842.508 723.347 841.921 720.635 840.78C717.923 839.639 715.467 837.968 713.41 835.865C711.353 833.762 709.737 831.269 708.657 828.532C707.576 825.796 707.053 822.872 707.119 819.931V771.57C707.119 765.715 709.445 760.099 713.585 755.959C717.725 751.819 723.34 749.493 729.195 749.493H729.98V769.117L751.282 769.128Z" fill="#42373B"/>
<path d="M707.121 761.038V805.202H627.81C621.955 805.202 616.339 802.876 612.199 798.736C608.059 794.596 605.733 788.98 605.733 783.125V783.125C605.733 777.27 608.059 771.655 612.199 767.515C616.339 763.375 621.955 761.049 627.81 761.049H707.121V761.038Z" fill="#42373B"/>
<path d="M645.233 672.765L621.957 705.34C620.662 707.153 619.737 709.202 619.234 711.372C618.731 713.542 618.661 715.79 619.028 717.987C619.394 720.184 620.19 722.287 621.37 724.176C622.55 726.066 624.09 727.704 625.904 728.998V728.998C627.716 730.293 629.765 731.218 631.935 731.72C634.105 732.223 636.353 732.293 638.55 731.927C640.747 731.56 642.85 730.764 644.74 729.584C646.629 728.405 648.267 726.864 649.561 725.051L672.836 692.476C675.449 688.815 676.501 684.267 675.761 679.83C675.021 675.394 672.549 671.433 668.89 668.819V668.819C667.078 667.524 665.028 666.598 662.858 666.096C660.688 665.593 658.44 665.523 656.243 665.89C654.046 666.256 651.943 667.052 650.054 668.232C648.165 669.412 646.526 670.952 645.233 672.765V672.765Z" fill="#42373B"/>
<path d="M621.41 746.081L588.824 734.841C585.918 733.849 583.431 731.905 581.766 729.324C580.101 726.743 579.355 723.676 579.649 720.619C579.942 717.562 581.259 714.693 583.385 712.476C585.511 710.26 588.322 708.825 591.364 708.404L625.498 703.585C628.354 703.178 631.261 703.337 634.055 704.054C636.849 704.77 639.475 706.03 641.782 707.761C644.089 709.492 646.033 711.66 647.502 714.143C648.971 716.625 649.936 719.372 650.344 722.228C650.751 725.083 650.592 727.991 649.875 730.785C649.159 733.579 647.899 736.204 646.168 738.511C644.437 740.818 642.269 742.762 639.786 744.231C637.304 745.7 634.557 746.666 631.701 747.073C628.241 747.555 624.715 747.215 621.41 746.081V746.081Z" fill="#42373B"/>
<path d="M605.352 674.88C604.991 674.226 604.474 673.672 603.847 673.266C603.22 672.861 602.502 672.618 601.757 672.558C601.013 672.499 600.265 672.625 599.582 672.926C598.898 673.226 598.3 673.692 597.84 674.281C597.47 674.747 597.197 675.282 597.036 675.854C596.875 676.427 596.83 677.026 596.903 677.617V677.736C597.019 678.586 597.088 679.441 597.11 680.298C597.132 681.106 597.103 681.915 597.023 682.719C596.936 683.486 596.801 684.247 596.619 684.997C596.426 685.737 596.189 686.465 595.911 687.178C594.867 689.892 593.089 692.262 590.776 694.024V694.024C590.238 694.426 589.674 694.79 589.086 695.114C588.482 695.455 587.856 695.754 587.211 696.008C585.956 696.501 584.639 696.821 583.297 696.957C580.662 697.224 578.005 696.754 575.622 695.599C573.239 694.444 571.223 692.649 569.8 690.415C569.436 689.858 569.112 689.275 568.83 688.671C568.552 688.06 568.308 687.434 568.1 686.796C567.473 684.759 567.274 682.614 567.514 680.496C567.754 678.378 568.428 676.333 569.495 674.488C570.25 673.148 571.177 671.913 572.253 670.814L572.711 670.367C572.766 670.301 572.831 670.258 572.886 670.203L573.18 669.931C573.289 669.822 573.42 669.724 573.551 669.604L573.78 669.418L574.02 669.222C574.663 668.721 575.393 668.241 576.134 667.75L576.265 667.674C577.136 667.107 577.785 666.257 578.102 665.267C578.42 664.278 578.388 663.209 578.01 662.241C577.633 661.273 576.934 660.464 576.03 659.95C575.127 659.437 574.074 659.25 573.049 659.421C567.765 660.439 562.972 663.195 559.433 667.249C555.725 671.426 553.436 676.67 552.892 682.228C552.742 683.633 552.702 685.047 552.772 686.458C552.854 687.88 553.04 689.293 553.328 690.688C553.624 692.067 554.022 693.422 554.516 694.744V694.744C555.028 696.071 555.632 697.361 556.326 698.603C558.792 702.936 562.362 706.54 566.672 709.046C570.982 711.553 575.88 712.873 580.866 712.873C582.434 712.876 583.999 712.741 585.543 712.47C586.94 712.233 588.318 711.891 589.664 711.445H589.718C591.029 710.97 592.308 710.41 593.545 709.766C596.067 708.473 598.373 706.796 600.38 704.795C604.32 700.867 606.931 695.805 607.848 690.317C608.764 685.037 607.885 679.602 605.352 674.88V674.88Z" fill="#42373B"/>
<path d="M570.65 699.268L567.641 694.057L565.625 694.984C563.267 696.066 560.658 696.485 558.08 696.194C557.427 696.112 556.779 695.992 556.14 695.834C555.488 695.661 554.848 695.45 554.221 695.202C554.146 695.176 554.073 695.143 554.003 695.104L553.763 695.005L553.371 694.82L553.098 694.689L552.913 694.602L552.433 694.33C551.843 694.004 551.275 693.64 550.733 693.239C548.466 691.478 546.722 689.134 545.685 686.458C545.128 685.041 544.762 683.557 544.595 682.043L544.529 681.4C544.529 681.324 544.529 681.247 544.529 681.171C544.529 681.095 544.529 680.92 544.529 680.789V679.994C544.524 679.892 544.524 679.79 544.529 679.688V679.612C544.529 678.805 544.627 677.944 544.726 677.061V676.919C544.812 676.161 544.711 675.393 544.431 674.683C544.152 673.973 543.702 673.342 543.122 672.846C542.542 672.35 541.849 672.003 541.104 671.837C540.359 671.671 539.585 671.691 538.849 671.893C538.258 672.052 537.704 672.327 537.219 672.701C536.735 673.075 536.329 673.542 536.026 674.074C533.39 678.812 532.437 684.303 533.322 689.653C534.205 695.205 536.818 700.337 540.79 704.316L541.542 705.046L542.12 705.559L542.72 706.082L543.374 706.605L544.039 707.107C545.19 707.941 546.4 708.691 547.658 709.352C548.92 710.001 550.228 710.555 551.572 711.01C552.926 711.467 554.31 711.832 555.715 712.1L556.478 712.209H556.794L557.285 712.285L558.179 712.361L558.963 712.427H560.054H560.413C563.205 712.447 565.983 712.047 568.655 711.238C570.038 710.818 571.39 710.3 572.7 709.69C573.997 709.053 575.246 708.325 576.439 707.51C577.397 706.869 578.311 706.167 579.176 705.406L582.653 702.386L570.65 699.268Z" fill="#42373B"/>
<path d="M551.724 700.554C552.224 699.107 553.004 697.773 554.02 696.628C555.036 695.483 556.268 694.549 557.644 693.879C559.021 693.21 560.517 692.819 562.045 692.728C563.573 692.637 565.104 692.847 566.551 693.348L618.825 711.413L615.021 722.434C614.152 724.95 612.796 727.269 611.03 729.26C609.264 731.251 607.123 732.874 604.73 734.038C602.337 735.201 599.738 735.881 597.081 736.039C594.425 736.198 591.763 735.831 589.249 734.961L564.25 726.326C561.735 725.457 559.416 724.101 557.425 722.336C555.434 720.57 553.811 718.429 552.647 716.036C551.484 713.642 550.804 711.043 550.645 708.387C550.487 705.73 550.853 703.069 551.724 700.554V700.554Z" fill="#42373B"/>
<path d="M749.922 762.466C750.741 764.595 751.194 766.847 751.263 769.127C751.199 766.846 750.746 764.593 749.922 762.466Z" fill="#9B6CA9"/>
<path d="M751.285 769.127C751.215 766.845 750.754 764.592 749.922 762.466C750.742 764.595 751.195 766.847 751.263 769.127H748.058C747.148 769.127 746.247 769.306 745.407 769.655C744.566 770.003 743.802 770.514 743.159 771.158C742.516 771.802 742.007 772.567 741.659 773.408C741.312 774.249 741.134 775.15 741.136 776.06V795.891C741.136 796.8 741.315 797.7 741.662 798.54C742.01 799.38 742.52 800.143 743.163 800.786C743.806 801.429 744.569 801.939 745.409 802.287C746.249 802.635 747.149 802.814 748.058 802.814H751.329V844.95C751.329 845.539 751.21 846.123 750.979 846.665C750.748 847.207 750.409 847.697 749.983 848.105C749.557 848.512 749.053 848.829 748.501 849.037C747.949 849.244 747.361 849.337 746.772 849.311C745.64 849.238 744.58 848.734 743.809 847.902C743.038 847.07 742.616 845.975 742.629 844.841V837.776C742.628 836.846 742.44 835.925 742.076 835.068C741.712 834.212 741.18 833.437 740.511 832.79C739.842 832.143 739.049 831.638 738.181 831.303C737.313 830.969 736.386 830.812 735.456 830.843C733.644 830.941 731.94 831.733 730.698 833.055C729.455 834.376 728.77 836.126 728.784 837.94V838.016C728.784 839.751 728.094 841.415 726.868 842.641C725.641 843.868 723.977 844.557 722.242 844.557C720.508 844.557 718.844 843.868 717.617 842.641C716.39 841.415 715.701 839.751 715.701 838.016L715.778 826.275C715.778 824.372 715.022 822.548 713.677 821.202C712.331 819.857 710.507 819.101 708.604 819.101H707.198V805.201H684.958V796.338C684.958 792.84 683.568 789.484 681.094 787.01C678.62 784.537 675.265 783.147 671.767 783.147H669.75C666.25 783.147 662.894 784.536 660.418 787.01C657.943 789.483 656.55 792.839 656.547 796.338V805.201H640.031C639.163 805.201 638.303 805.03 637.5 804.697C636.698 804.365 635.969 803.877 635.356 803.262C634.742 802.648 634.256 801.918 633.924 801.115C633.593 800.313 633.423 799.452 633.424 798.584V797.581C633.425 796.65 633.238 795.728 632.875 794.871C632.511 794.014 631.979 793.238 631.31 792.591C630.64 791.944 629.847 791.439 628.978 791.105C628.109 790.771 627.182 790.615 626.251 790.647C624.439 790.745 622.734 791.537 621.489 792.858C620.245 794.18 619.557 795.929 619.568 797.744V803.773C619.568 804.682 619.389 805.582 619.041 806.422C618.693 807.262 618.183 808.025 617.54 808.668C616.898 809.311 616.135 809.821 615.295 810.169C614.455 810.517 613.554 810.696 612.645 810.696C611.736 810.696 610.836 810.517 609.996 810.169C609.156 809.821 608.393 809.311 607.75 808.668C607.107 808.025 606.598 807.262 606.25 806.422C605.902 805.582 605.723 804.682 605.723 803.773V783.06C605.723 782.885 605.723 782.722 605.723 782.547C605.865 776.784 608.255 771.305 612.381 767.28C616.508 763.255 622.045 761.003 627.81 761.005H657.158C657.522 756.943 658.753 753.006 660.767 749.46H700.013C700.944 749.46 701.864 749.276 702.724 748.92C703.583 748.564 704.363 748.042 705.02 747.384C705.677 746.725 706.198 745.944 706.553 745.085C706.908 744.225 707.09 743.304 707.089 742.374C707.089 740.35 707.893 738.409 709.324 736.977C710.755 735.546 712.696 734.742 714.72 734.742H722.351C726.15 734.742 729.911 735.49 733.42 736.944C736.929 738.397 740.117 740.528 742.803 743.213C745.489 745.899 747.619 749.088 749.073 752.597C750.526 756.106 751.274 759.867 751.274 763.665L751.285 769.127Z" fill="#010416"/>
<path d="M750.828 671.751C749.707 671.931 748.652 672.399 747.767 673.11C746.882 673.821 746.198 674.751 745.781 675.807C744.491 679.021 742.27 681.777 739.403 683.719C736.536 685.662 733.153 686.703 729.689 686.708H708.016C704.827 686.706 701.699 685.826 698.976 684.165C696.253 682.504 694.04 680.125 692.579 677.289C691.84 675.877 690.727 674.694 689.363 673.869C687.998 673.044 686.433 672.61 684.839 672.612H684.686C682.947 672.622 681.248 673.145 679.804 674.114C678.36 675.084 677.233 676.457 676.564 678.063C675.474 680.613 673.66 682.788 671.346 684.316C669.032 685.845 666.321 686.662 663.547 686.665H654.902C651.848 686.663 648.872 685.703 646.394 683.919C643.916 682.135 642.06 679.618 641.089 676.722C640.839 675.914 640.432 675.163 639.891 674.512C639.35 673.862 638.686 673.324 637.938 672.929C637.189 672.535 636.37 672.292 635.528 672.214C634.685 672.137 633.836 672.225 633.027 672.476C632.219 672.727 631.468 673.134 630.818 673.675C630.167 674.215 629.629 674.879 629.235 675.628C628.84 676.376 628.597 677.195 628.519 678.038C628.442 678.88 628.531 679.73 628.781 680.538C630.568 686.069 634.064 690.89 638.766 694.307C643.468 697.724 649.133 699.56 654.946 699.551H663.591C667.745 699.554 671.844 698.598 675.568 696.756C679.291 694.914 682.539 692.237 685.057 688.932C687.892 692.265 691.418 694.94 695.39 696.774C699.362 698.607 703.685 699.555 708.06 699.551H729.777C735.813 699.551 741.711 697.744 746.712 694.363C751.713 690.983 755.588 686.183 757.838 680.582C758.277 679.519 758.423 678.359 758.263 677.22C758.103 676.082 757.642 675.008 756.927 674.107C756.212 673.207 755.27 672.514 754.198 672.1C753.126 671.685 751.962 671.565 750.828 671.751V671.751Z" fill="#393136"/>
<path d="M691.064 719.317H677.611C675.902 719.317 674.263 718.638 673.055 717.43C671.847 716.221 671.168 714.583 671.168 712.874C671.168 711.165 671.847 709.526 673.055 708.318C674.263 707.109 675.902 706.431 677.611 706.431H691.064C692.773 706.431 694.412 707.109 695.62 708.318C696.828 709.526 697.507 711.165 697.507 712.874C697.507 714.583 696.828 716.221 695.62 717.43C694.412 718.638 692.773 719.317 691.064 719.317V719.317Z" fill="#393136"/>
<path d="M653.224 668.928C651.516 668.925 649.879 668.245 648.672 667.037C647.464 665.83 646.784 664.193 646.781 662.485V651.583C646.781 649.874 647.46 648.235 648.668 647.027C649.877 645.818 651.515 645.14 653.224 645.14C654.933 645.14 656.572 645.818 657.78 647.027C658.989 648.235 659.667 649.874 659.667 651.583V662.485C659.664 664.193 658.985 665.83 657.777 667.037C656.569 668.245 654.932 668.925 653.224 668.928V668.928Z" fill="#5C5054"/>
</g>
<g filter="url(#filter1_d_1647_757)">
<path d="M683.627 561.773L694.223 568.532C694.346 568.618 694.449 568.728 694.527 568.856C694.605 568.984 694.656 569.126 694.676 569.275C694.697 569.423 694.686 569.574 694.646 569.718C694.606 569.862 694.536 569.996 694.441 570.113C693.27 571.428 691.668 572.283 689.923 572.525C688.178 572.767 686.404 572.379 684.919 571.432C683.434 570.485 682.335 569.04 681.818 567.355C681.302 565.671 681.402 563.858 682.1 562.241C682.166 562.107 682.258 561.987 682.372 561.889C682.485 561.792 682.618 561.719 682.761 561.675C682.905 561.631 683.055 561.617 683.204 561.633C683.353 561.65 683.497 561.698 683.627 561.773Z" fill="#FFE200"/>
</g>
<g opacity="0.3">
<path d="M442.324 30.6523L433.841 70.381L433.537 61.4235L473.674 151.525C475.034 154.579 475.363 158.179 474.59 161.536C473.818 164.892 472.006 167.73 469.552 169.426L468.945 169.844L402.827 215.468L409.335 206.497L373.418 370.606C371.486 379.418 366.82 386.916 360.445 391.452C354.07 395.987 346.508 397.189 339.42 394.794C332.334 392.392 326.305 386.589 322.658 378.662C319.01 370.734 318.044 361.329 319.97 352.515C320.483 350.251 321.166 348.052 322.009 345.946L383.984 194.37L384.906 192.103C386.109 189.141 388.076 186.766 390.492 185.358L459.084 145.683L454.343 164.003L418.339 71.2174L417.775 69.7739C417.331 68.5878 417.122 67.2865 417.165 65.9792C417.208 64.6718 417.503 63.3965 418.024 62.2599L434.546 26.6052C435.114 25.4013 436.043 24.5265 437.128 24.1724C438.214 23.8184 439.369 24.0141 440.339 24.7166C441.149 25.2956 441.783 26.1915 442.142 27.2649C442.501 28.3383 442.565 29.5292 442.324 30.6523V30.6523Z" fill="#01092E"/>
<path d="M442.833 171.576L477.761 232.591L468.033 231.252L508.912 191.691L509.228 191.396C510.073 190.562 511.125 190.107 512.209 190.107C513.293 190.107 514.345 190.562 515.19 191.396L533.405 209.757C534.246 210.526 534.805 211.675 534.958 212.951C535.111 214.227 534.846 215.525 534.221 216.561C533.596 217.596 532.663 218.283 531.626 218.472C530.59 218.66 529.535 218.334 528.693 217.565L509.108 201.4L515.386 201.173L476.705 243.948C475.416 245.37 473.722 246.104 471.993 245.988C470.265 245.873 468.645 244.917 467.489 243.332L467.271 243.024L466.989 242.582L428.928 184.486C427.476 182.264 426.801 179.424 427.051 176.589C427.301 173.755 428.455 171.159 430.261 169.373C432.066 167.586 434.373 166.755 436.676 167.063C438.979 167.37 441.088 168.791 442.539 171.013C442.605 171.187 442.724 171.388 442.833 171.576Z" fill="#01092E"/>
<path d="M458.267 155.604L475.505 71.6952L475.636 71.0469C475.998 69.3376 476.889 67.8712 478.117 66.9623C479.346 66.0534 480.814 65.7743 482.207 66.185C482.518 66.2871 482.822 66.418 483.116 66.5766L513.573 83.5124C514.526 84.0096 515.285 84.9459 515.687 86.1222C516.09 87.2985 516.104 88.622 515.728 89.8112C515.351 91.0005 514.613 91.9616 513.671 92.4903C512.728 93.0189 511.656 93.0734 510.681 92.642L478.922 79.6769L486.588 74.5583L475.417 159.926C475.232 161.327 474.826 162.67 474.22 163.877C473.615 165.084 472.822 166.132 471.888 166.962C470.954 167.792 469.897 168.386 468.776 168.712C467.656 169.037 466.494 169.088 465.358 168.86C464.222 168.632 463.133 168.13 462.154 167.384C461.175 166.637 460.325 165.66 459.653 164.508C458.98 163.356 458.498 162.052 458.234 160.67C457.97 159.288 457.929 157.856 458.114 156.455C458.15 156.168 458.201 155.884 458.267 155.604V155.604Z" fill="#01092E"/>
<path d="M427.959 74.9287L394.482 83.7146L394.025 83.8359C392.457 84.247 390.821 83.8788 389.469 82.8103C388.118 81.7419 387.158 80.0586 386.797 78.1224L379.188 36.9959L379.091 36.4839C379.006 36.0017 378.981 35.5066 379.015 35.0151L382.373 -6.13833C382.467 -7.27068 382.918 -8.31092 383.629 -9.03087C384.341 -9.75082 385.253 -10.0917 386.167 -9.97877C387.02 -9.86574 387.809 -9.36563 388.383 -8.57462C388.957 -7.7836 389.275 -6.75752 389.275 -5.69365L389.188 35.6753L389.025 33.708L399.079 74.0124L391.395 68.4202L424.252 56.6024C425.214 56.2564 426.221 56.1486 427.216 56.2851C428.211 56.4216 429.174 56.7996 430.051 57.3978C431.823 58.6057 433.134 60.6366 433.698 63.0436C433.977 64.2354 434.064 65.4837 433.954 66.7172C433.844 67.9507 433.539 69.1452 433.056 70.2326C432.574 71.3199 431.923 72.2789 431.142 73.0546C430.361 73.8303 429.464 74.4076 428.502 74.7535L427.959 74.9287Z" fill="#01092E"/>
<path d="M486.379 215.469L483.088 181.807L483.022 181.125C482.956 180.363 483.039 179.593 483.264 178.88C483.49 178.168 483.851 177.534 484.317 177.033L502.548 157.774C503.075 157.233 503.745 156.959 504.427 157.005C505.109 157.051 505.751 157.414 506.228 158.022C506.704 158.63 506.979 159.438 506.999 160.286C507.018 161.135 506.78 161.961 506.333 162.602L490.317 184.657L491.546 179.829L498.127 212.741C498.513 214.659 498.27 216.688 497.452 218.382C496.635 220.077 495.309 221.298 493.767 221.777C492.225 222.257 490.593 221.955 489.23 220.938C487.867 219.921 486.885 218.273 486.5 216.356C486.456 216.069 486.412 215.742 486.379 215.469Z" fill="#01092E"/>
<path d="M396.566 186.93L393.158 149.822L398.233 156.604L375.084 144.94C373.882 144.335 372.918 143.151 372.404 141.646C371.889 140.14 371.866 138.438 372.338 136.911C372.756 135.58 373.524 134.473 374.511 133.779C375.498 133.084 376.644 132.844 377.754 133.099L402.239 138.823C403.262 139.06 404.218 139.633 405.012 140.485C405.807 141.337 406.412 142.438 406.768 143.678L407.313 145.577L417.354 180.691C418.328 184.094 418.196 187.848 416.989 191.128C415.782 194.408 413.598 196.945 410.918 198.18C408.238 199.416 405.281 199.249 402.698 197.717C400.114 196.184 398.116 193.412 397.143 190.009C396.859 189.014 396.666 187.981 396.566 186.93V186.93Z" fill="#01092E"/>
<path d="M373.673 253.777C370.745 247.743 367.969 241.628 365.237 235.418C362.504 229.208 359.815 223.012 357.202 216.748L353.298 207.298L349.46 197.848C348.191 194.689 346.911 191.53 345.686 188.399C344.461 185.267 343.236 182.013 342.043 178.8L357.581 182C354.74 184.457 351.874 186.864 348.983 189.222L340.308 196.35C337.413 198.699 334.55 201.115 331.633 203.518C328.716 205.921 325.94 208.405 323.143 210.916L322.514 211.483C321.631 212.276 320.553 212.658 319.467 212.563C311.649 211.888 303.831 211.213 296.024 210.713L284.345 209.917C280.442 209.714 276.527 209.458 272.624 209.309C272.133 209.292 271.65 209.154 271.202 208.904C270.754 208.653 270.35 208.295 270.013 207.85C269.677 207.404 269.414 206.881 269.241 206.309C269.067 205.737 268.986 205.128 269.002 204.517C269.033 203.308 269.441 202.161 270.139 201.319C270.837 200.478 271.771 200.008 272.743 200.008C276.657 200.008 280.572 199.941 284.486 199.9L296.219 199.63C304.048 199.423 311.877 199.14 319.705 198.78L316.019 200.427C318.437 197.376 320.801 194.23 323.175 191.112C325.55 187.994 327.881 184.808 330.191 181.662L337.163 172.077C339.484 168.874 341.83 165.724 344.201 162.628C345.043 161.52 346.052 160.63 347.17 160.009C348.289 159.387 349.495 159.046 350.719 159.004C351.944 158.963 353.163 159.222 354.307 159.768C355.451 160.313 356.497 161.133 357.386 162.182C357.779 162.635 358.142 163.127 358.47 163.654L359.761 165.827C361.452 168.676 363.122 171.551 364.749 174.44C366.375 177.329 368.002 180.245 369.607 183.161L374.41 191.908L379.138 200.724C382.261 206.623 385.362 212.536 388.376 218.503C391.391 224.47 394.373 230.477 397.203 236.592C398.984 240.474 399.465 245.073 398.539 249.393C397.614 253.712 395.358 257.403 392.261 259.665C389.164 261.927 385.475 262.578 381.995 261.476C378.516 260.373 375.525 257.607 373.673 253.777V253.777Z" fill="#01092E"/>
<path d="M568.408 -7.25352C565.169 -1.48344 561.8 4.15183 558.366 9.74664C554.932 15.3415 551.422 20.8689 547.891 26.3693L542.492 34.5796L537.092 42.6684C533.486 48.061 529.814 53.4536 525.981 58.7249L521.661 37.6398C524.577 39.9227 527.474 42.255 530.354 44.6367L538.993 51.7819C541.865 54.1816 544.77 56.5139 547.632 58.8328C550.493 61.1516 553.463 63.4165 556.411 65.5735L557.243 66.2071C558.25 66.9524 559.015 68.1171 559.402 69.4966C562.001 78.682 564.665 87.8314 567.393 96.9449C568.747 101.52 570.122 106.076 571.518 110.615C572.933 115.145 574.315 119.688 575.784 124.205C576.115 125.432 576.064 126.769 575.641 127.952C575.218 129.134 574.453 130.074 573.5 130.584C572.547 131.094 571.474 131.137 570.497 130.704C569.519 130.271 568.708 129.395 568.225 128.249C566.648 123.8 564.985 119.405 563.376 114.97C561.767 110.534 560.083 106.153 558.409 101.758C555.061 92.9679 551.656 84.2049 548.193 75.4689L551.185 79.3786C547.945 77.9091 544.705 76.5474 541.466 75.1454C538.226 73.7433 534.911 72.4491 531.607 71.1818L521.726 67.2991C518.429 66.0049 515.153 64.6568 511.899 63.2547C509.339 62.1603 507.232 59.8412 506.041 56.8073C504.85 53.7735 504.673 50.2734 505.55 47.0769C505.73 46.4102 505.957 45.765 506.23 45.149L507.537 42.1696C510.269 35.9412 513.152 29.861 516.111 23.8483L520.527 14.8022L525.02 5.82353C528.043 -0.135288 531.099 -6.06714 534.231 -11.9181C537.362 -17.7691 540.537 -23.6066 543.874 -29.2958C546.247 -33.3306 549.806 -36.0235 553.769 -36.782C557.733 -37.5405 561.775 -36.3024 565.007 -33.3402C568.196 -30.4136 570.339 -26.0419 570.975 -21.1643C571.611 -16.2866 570.69 -11.292 568.408 -7.25352V-7.25352Z" fill="#01092E"/>
<path d="M564.303 88.0449L597.328 92.5241C598.062 92.6237 598.74 93.0711 599.234 93.7798C599.727 94.4886 600 95.4086 600 96.3624C600 97.3161 599.727 98.2361 599.234 98.9449C598.74 99.6536 598.062 100.101 597.328 100.201L564.303 104.947C562.571 105.198 560.832 104.547 559.47 103.139C558.108 101.731 557.234 99.6813 557.041 97.4399C556.847 95.1985 557.35 92.9494 558.438 91.1875C559.527 89.4256 561.112 88.2952 562.844 88.0449C563.329 87.985 563.818 87.985 564.303 88.0449V88.0449Z" fill="#01092E"/>
</g>
<g filter="url(#filter2_f_1647_757)">
<path d="M718.912 242.648C718.912 306.138 667.605 357.607 604.319 357.607C541.034 357.607 489.734 306.138 489.734 242.648C489.734 179.158 541.037 127.686 604.323 127.686C667.609 127.686 718.916 179.154 718.916 242.644M718.916 242.644C718.916 306.135 667.609 357.603 604.323 357.603C541.037 357.603 489.734 306.138 489.734 242.648C489.734 179.158 541.037 127.686 604.323 127.686C667.609 127.686 718.916 179.154 718.916 242.644Z" fill="#FBC300"/>
<path d="M622.399 320.355C620.076 316.968 616.187 314.75 611.784 314.75C611.209 314.75 610.646 314.788 610.094 314.861C606.58 304.558 599.928 292.498 588.025 292.498C586.669 292.498 585.251 292.656 583.753 292.991C571.517 295.716 567.007 297.761 565.551 299.122C565.183 294.382 563.769 282.149 558.661 271.158C566.037 273.15 573.797 274.211 581.806 274.211C610.577 274.211 636.163 260.509 652.422 239.254H668.126C670.556 244.478 675.836 248.096 681.96 248.096C688.083 248.096 693.364 244.478 695.793 239.254H704.082C693.375 278.882 662.068 310.014 622.402 320.363M495.574 268.806C494.011 266.23 492.543 263.585 491.183 260.882C490.248 254.993 489.742 248.953 489.734 242.798V242.644C489.734 179.612 540.294 128.428 602.951 127.693C561.06 128.185 524.602 151.248 505.016 185.305C502.583 193.444 501.257 202.067 501.257 211.005C501.257 215.826 501.652 220.551 502.384 225.164C507.404 235.125 514.232 244.017 522.433 251.402C507.657 254.22 499.717 261.174 495.574 268.806M679.293 216.049L679.281 216.041C678.208 215.049 675.027 213.588 666.72 211.659C669.352 203.228 670.77 194.251 670.77 184.952C670.77 180.131 670.375 175.402 669.644 170.789C660.665 152.978 645.9 138.619 627.844 130.142C620.318 128.566 612.535 127.701 604.545 127.686H604.591C604.63 127.686 604.668 127.686 604.706 127.686H604.737C604.768 127.686 604.798 127.686 604.833 127.686C604.84 127.686 604.852 127.686 604.86 127.686C604.902 127.686 604.936 127.686 604.978 127.686H605.097C605.097 127.686 605.116 127.686 605.124 127.686H605.239C605.281 127.686 605.323 127.686 605.365 127.686H605.381C605.415 127.686 605.453 127.686 605.488 127.686C605.492 127.686 605.507 127.686 605.511 127.686H605.637C605.676 127.686 605.714 127.686 605.752 127.686C605.76 127.686 605.764 127.686 605.775 127.686C605.86 127.686 605.94 127.686 606.024 127.686H606.028C645.41 128.262 679.959 148.78 700.142 179.612C682.868 184.625 679.806 209.521 679.3 216.037M602.963 127.693C602.997 127.693 603.035 127.693 603.07 127.693C603.032 127.693 603.001 127.693 602.963 127.693ZM603.089 127.693C603.17 127.693 603.246 127.693 603.327 127.693C603.246 127.693 603.17 127.693 603.089 127.693ZM603.334 127.693C603.369 127.693 603.403 127.693 603.438 127.693C603.403 127.693 603.365 127.693 603.334 127.693ZM603.461 127.693C603.495 127.693 603.537 127.693 603.572 127.693C603.534 127.693 603.499 127.693 603.461 127.693ZM603.576 127.693C603.614 127.693 603.652 127.693 603.691 127.693C603.652 127.693 603.614 127.693 603.576 127.693ZM603.718 127.693C603.748 127.693 603.775 127.693 603.81 127.693C603.779 127.693 603.748 127.693 603.718 127.693ZM603.833 127.693C603.867 127.693 603.905 127.693 603.94 127.693C603.902 127.693 603.867 127.693 603.833 127.693ZM603.948 127.693C603.986 127.693 604.024 127.693 604.062 127.693C604.024 127.693 603.986 127.693 603.948 127.693ZM604.089 127.693C604.116 127.693 604.147 127.693 604.174 127.693C604.143 127.693 604.116 127.693 604.089 127.693Z" fill="#FFE300"/>
<path d="M581.803 274.203C573.798 274.203 566.038 273.142 558.658 271.151C553.603 260.283 544.927 250.625 530.059 250.625C527.898 250.625 525.61 250.829 523.181 251.264C522.932 251.31 522.679 251.356 522.434 251.402C514.233 244.017 507.404 235.125 502.384 225.164C501.653 220.551 501.258 215.826 501.258 211.005C501.258 202.067 502.584 193.444 505.017 185.305C524.602 151.248 561.06 128.185 602.952 127.693H602.963C603.002 127.693 603.032 127.693 603.071 127.693H603.09C603.17 127.693 603.247 127.693 603.327 127.693H603.339C603.369 127.693 603.408 127.693 603.442 127.693H603.465C603.504 127.693 603.538 127.693 603.576 127.693H603.58C603.619 127.693 603.657 127.693 603.695 127.693H603.722C603.753 127.693 603.779 127.693 603.814 127.693H603.841C603.879 127.693 603.914 127.693 603.948 127.693H603.956C603.994 127.693 604.032 127.693 604.071 127.693H604.098C604.124 127.693 604.151 127.693 604.182 127.693H604.485C604.508 127.693 604.527 127.693 604.55 127.693C612.539 127.709 620.322 128.57 627.848 130.15C645.905 138.627 660.67 152.986 669.648 170.797C670.38 175.41 670.775 180.139 670.775 184.959C670.775 194.263 669.357 203.236 666.724 211.666C666.264 211.559 665.785 211.451 665.291 211.34C664.141 211.082 663.049 210.963 662.003 210.963C646.085 210.963 642.368 239.027 642.337 239.25H652.423C636.16 260.506 610.577 274.211 581.807 274.211" fill="#FFF000"/>
<path d="M697.214 282.78C697.214 290.669 690.841 297.066 682.974 297.066C675.107 297.066 668.734 290.669 668.734 282.78C668.734 274.891 675.111 268.494 682.974 268.494C690.837 268.494 697.214 274.891 697.214 282.78V282.78Z" fill="#FBC300"/>
<path d="M663.988 313.389C663.988 316.018 661.861 318.152 659.24 318.152C656.619 318.152 654.492 316.018 654.492 313.389C654.492 310.759 656.619 308.629 659.24 308.629C661.861 308.629 663.988 310.759 663.988 313.389Z" fill="#FBC300"/>
<path d="M624.665 327.675C624.665 334.814 618.898 340.6 611.786 340.6C604.673 340.6 598.898 334.814 598.898 327.675C598.898 320.536 604.669 314.75 611.786 314.75C618.902 314.75 624.665 320.54 624.665 327.675Z" fill="#FBC300"/>
<path d="M607.033 293.325C607.033 297.269 603.844 300.468 599.913 300.468C595.981 300.468 592.793 297.269 592.793 293.325C592.793 289.381 595.981 286.182 599.913 286.182C603.844 286.182 607.033 289.381 607.033 293.325Z" fill="#FBC300"/>
<path d="M629.409 300.81C629.409 302.498 628.045 303.87 626.355 303.87C624.665 303.87 623.309 302.498 623.309 300.81C623.309 299.122 624.673 297.746 626.355 297.746C628.037 297.746 629.409 299.119 629.409 300.81V300.81Z" fill="#FBC300"/>
<path d="M646.362 282.78C646.362 285.037 644.542 286.859 642.296 286.859C640.051 286.859 638.227 285.033 638.227 282.78C638.227 280.527 640.047 278.697 642.296 278.697C644.546 278.697 646.362 280.523 646.362 282.78Z" fill="#FBC300"/>
<path d="M697.214 232.784C697.214 241.237 690.381 248.092 681.958 248.092C673.536 248.092 666.703 241.237 666.703 232.784C666.703 224.33 673.532 217.479 681.958 217.479C690.385 217.479 697.214 224.334 697.214 232.784Z" fill="#FBC300"/>
<path d="M709.328 206.142C697.027 186.804 689.976 168.328 670.142 154.715C651.423 141.867 625.166 134.382 602.446 134.382C577.009 134.382 534.665 144.224 520.782 169.02C525.319 165.883 535.857 159.163 541.662 161.82C545.536 163.592 545.613 168.286 548.123 171.535C539.746 175.802 544.578 174.733 543.402 182.022C543.057 184.144 540.57 183.894 540.267 186.201C539.88 189.157 540.382 192.44 540.141 195.454C536.688 196.146 534.389 198.518 533.6 202.017C532.339 201.367 529.821 200.783 528.752 199.891C534.489 204.677 536.041 211.655 529.112 216.245C522.311 220.747 512.179 215.368 520.487 208.787C512.608 212.462 515.149 201.067 516.474 197.165C522.429 197.834 519.199 193.259 519.908 190.487C520.797 187.008 523.548 184.617 526.989 183.894C523.203 183.987 517.586 182.629 514.972 185.959C516.574 186.82 515.961 187.316 517.015 188.342C513.221 190.649 506.549 190.83 502.047 190.457C505.507 192.164 511.018 191.587 514.957 192.133C513.332 192.906 510.565 193.198 508.454 193.574C510.301 194.14 512.183 194.897 513.892 195.762C510.523 197.3 507.163 199.233 504.154 201.329C507.009 200.848 510.244 199.16 513.275 199.337C507.032 198.98 513.846 211.716 515.332 213.031C510.723 217.337 508.692 225.356 507.051 231.392C510.14 229.45 513.225 224.956 517.168 224.752C516.727 224.776 521.828 230.058 522.675 230.531C523.039 227.986 524.663 225.471 525.288 223.046C531.197 226.283 532.891 236.782 540.218 238.146C538.497 231.938 528.844 215.714 541.31 215.053C542.819 214.972 538.616 205.311 538.436 204.681C544.532 204.377 548.828 203.924 554.802 206.465C552.56 202.297 549.989 195.716 553.446 192.098C556.078 189.334 559.6 192.806 560.083 186.209C565.026 185.228 573.341 189.826 568.689 195.539C574.365 193.048 579.415 192.46 584.853 196.081C585.83 187.389 590.7 181.495 596.081 174.971C602.158 167.613 605.894 167.513 615.195 169.032C621.127 169.997 627.94 167.509 633.297 169.024C638.118 170.385 644.406 177.601 640.881 182.537C648.56 180.231 645.13 169.762 651.507 168.632C659.37 167.236 660.282 181.937 651.039 181.688C653.02 184.382 655.753 186.808 658.627 188.296C661.022 178.205 670.088 175.602 678.17 180.861C690.065 188.596 679.783 194.047 672.15 199.295C668.816 201.582 660.455 203.524 658.121 206.126C655.611 208.925 658.424 214.53 654.454 217.164C649.652 220.351 646.51 216.279 646.928 211.02C642.559 213.55 636.577 219.251 634.136 223.641C637.995 222.215 641.835 220.389 645.019 217.856C646.372 222.207 647.203 227.893 651.825 230.196C652.2 227.228 653.155 225.406 651.564 222.177C654.868 224.007 658.037 226.536 661.144 228.335C662.095 223.764 658.588 220.02 657.075 216.568C659.351 216.941 661.673 215.441 663.459 215.361C662.072 214.315 660.213 211.612 658.06 211.178C665.992 209.083 677.775 211.312 684.635 207.726C691.138 204.323 690.793 196.554 700.227 200.045C698.395 199.183 697.564 197.869 696.307 196.908C703.473 195.047 706.136 201.129 709.324 206.142H709.328Z" fill="#FFF576"/>
</g>
<path fill-rule="evenodd" clip-rule="evenodd" d="M618.83 269.972C625.563 273.578 632.778 275.331 640.58 273.831C644.19 284.311 644.252 300.112 657.28 304.809C669.102 309.065 669.271 297.774 672.631 289.27C673.199 292.4 674.088 300.692 676.268 302.249C681.104 305.694 688.412 296.932 691.458 293.63C690.535 297.017 687.388 307.439 688.45 310.095C690.282 314.724 692.792 316.689 697.888 317.338C710.001 318.888 716.24 306.582 722.007 298.543C737.94 311.337 777.613 301.13 785.105 281.878C783.882 285.015 782.48 288.106 781.054 291.154C778.613 296.379 776.073 301.542 774.115 306.97C773.111 309.749 772.229 312.598 771.769 315.52C771.493 317.265 771.149 319.199 771.271 320.964C771.402 322.797 772.39 324.946 772.915 326.715C771.769 326.023 770.543 326.138 769.259 326.226C766.343 326.423 763.278 326.553 760.565 327.745C753.866 330.682 749.643 340.405 750.506 347.505C747.432 345.814 744.807 343.968 741.244 343.453C737.653 342.938 733.442 343.273 729.951 344.276C724.601 345.814 719.62 348.955 715.91 353.114C714.649 354.529 712.868 356.49 712.944 358.542C709.131 355.701 706.081 352.276 701.318 350.911C697.612 349.854 692.451 350.116 689.944 353.51C687.503 343.718 684.308 339.47 674.885 346.287C668.853 350.65 664.868 356.797 662.511 363.775C663.703 360.253 663.243 354.64 662.113 351.192C660.718 346.925 658.775 335.495 654.322 336.272C651.712 336.722 646.367 338.875 645.761 341.939C644.819 337.133 639.174 332.247 635.024 330.167C631.951 328.622 625.793 327.561 622.892 330.105C622.585 328.714 622.635 327.28 622.363 325.884C621.65 322.278 619.029 319.541 616.201 317.388C611.691 313.963 606.242 311.51 600.823 309.934C598.827 309.357 595.734 308.227 593.769 309.515C596.271 304.237 597.39 297.378 594.773 291.965C592.588 287.44 586.001 282.812 580.855 285.326C581.97 283.588 583.162 282.147 583.978 280.19C585.668 276.13 586.124 271.794 586.461 267.442C586.944 261.149 586.154 255.117 585.315 248.889C584.599 243.595 583.093 236.844 579 233C590.584 243.891 603.456 261.764 618.834 269.979L618.83 269.972Z" fill="#01092E"/>
<path fill-rule="evenodd" clip-rule="evenodd" d="M682.752 310.407C682.465 313.721 679.464 314.651 677.426 312.71C677.997 312.325 682.71 310.868 682.752 310.407Z" fill="#FBC300"/>
<path fill-rule="evenodd" clip-rule="evenodd" d="M669.71 305.498C668.349 308.116 670.694 311.049 673.557 311.172C673.208 310.468 669.522 305.859 669.71 305.498Z" fill="#FBC300"/>
<g filter="url(#filter3_f_1647_757)">
<path fill-rule="evenodd" clip-rule="evenodd" d="M554.207 182.472C558.583 180.381 562.277 177.432 564.664 173.107C571.045 174.853 578.529 180.131 585.917 175.329C587.653 174.199 588.94 173.522 589.224 171.408C589.668 168.148 587.492 165.707 586.108 163.458C587.975 164.357 591.121 165.372 593.152 164.53C594.236 164.077 594.75 163.243 594.953 162.105C595.11 161.243 595.183 158.099 594.539 157.48C596.359 159.233 598.057 162.058 600.643 162.747C603.257 163.439 606.173 161.374 607.951 159.637C613.492 154.227 610.154 147.035 608.644 141.51C621.01 138.004 631.939 115.134 625.816 105C628.138 108.841 629.464 112.804 631.349 116.787C632.602 119.424 633.825 122.038 635.591 124.376C636.779 125.94 637.798 127.67 639.335 128.912C640.082 129.516 640.956 129.931 641.596 130.654C637.956 130.185 635.116 133.856 635.3 137.27C635.557 142.006 639.714 145.816 643.056 148.711C638.059 148.795 632.667 152.986 631.472 157.918C630.456 162.101 633.821 164.242 636.66 166.46C631.242 166.656 623.126 167.537 621.692 174.018C621.899 172.569 619.788 171.731 618.799 171.166C615.109 169.044 610.618 171.554 609.43 175.195C607.924 179.808 609.859 184.56 612.434 188.377C610.292 185.202 602.214 182.48 597.838 183.445C595.593 183.937 592.68 186.067 591.795 188.212C590.691 190.88 591.715 194.048 592.42 196.685C591.071 195.42 589.412 193.99 587.476 194.04C581.725 194.19 576.203 200.756 575.586 206.123C570.183 199.384 558.951 199.637 554.651 207.18C554.441 203.624 552.433 200.026 549.164 198.48C546.926 197.419 538.672 196.547 537.718 200.099C536.342 192.175 527.988 189.096 520.93 189.58C530.671 187.562 544.221 187.258 554.203 182.484L554.207 182.472Z" fill="#01092E"/>
</g>
<path fill-rule="evenodd" clip-rule="evenodd" d="M598.083 164.115C599.21 165.053 599.555 167.156 596.73 167.421C596.799 167.075 598.24 164.246 598.083 164.115Z" fill="#01092E"/>
<g filter="url(#filter4_f_1647_757)">
<path fill-rule="evenodd" clip-rule="evenodd" d="M591.401 168.613C591.255 170.166 593.727 170.785 594.941 168.329C594.551 168.302 591.466 168.782 591.401 168.613Z" fill="#01092E"/>
</g>
<g filter="url(#filter5_f_1647_757)">
<path fill-rule="evenodd" clip-rule="evenodd" d="M495.343 219.505C497.489 221.881 500.076 223.569 503.34 224.003C503.317 228.766 501.172 235.221 505.636 238.893C509.686 242.222 511.303 237.635 513.783 234.621C513.101 235.448 512.319 238.908 512.959 239.842C514.381 241.895 517.369 240.142 519.017 239.208C518.044 239.765 517.078 244.017 517.128 245.24C517.212 247.381 517.925 248.515 519.833 249.465C524.367 251.729 528.501 247.542 531.862 245.036C536.353 252.398 553.302 253.567 558.878 246.72C554.559 252.017 549.309 255.719 547.309 262.978C542.979 253.517 534.763 266.061 535.081 266.372C533.318 264.665 531.379 262.424 529.111 261.378C524.359 259.183 521.558 262.993 518.293 265.569C517.255 263.481 516.799 261.194 515.641 259.114C511.323 251.352 505.433 255.277 501.762 260.233C503.463 257.93 503.827 251.771 502.421 249.088C500.206 244.863 495.588 246.389 492.768 248.823C495.63 241.318 489.082 232.738 482.169 234.141C486.169 231.442 485.334 221.996 482 218.61C483.69 216.737 484.847 212.524 485.223 209.814C485.698 206.442 485.951 202.425 484.805 199.045C487.855 205.05 490.446 214.077 495.343 219.498V219.505Z" fill="#01092E"/>
<path fill-rule="evenodd" clip-rule="evenodd" d="M515.151 244.036C514.733 245.047 513.58 244.943 513.051 244.063C513.292 244.013 515.093 244.178 515.151 244.036Z" fill="#01092E"/>
<path fill-rule="evenodd" clip-rule="evenodd" d="M511.017 240.761C510.285 241.407 510.829 242.648 511.83 243.064C511.776 242.794 510.918 240.853 511.017 240.761Z" fill="#01092E"/>
</g>
<path d="M786.147 25.6902L802.771 63.3925L792.061 56.1332L838.449 43.7999C840.859 43.1583 843.596 43.6454 846.064 45.1549C848.531 46.6644 850.528 49.0736 851.618 51.8567L851.989 52.8072L877.574 118.193L872.533 110.614L983.893 192.501C987.026 194.806 989.823 197.68 992.124 200.961C994.424 204.242 996.183 207.865 997.301 211.622C998.418 215.38 998.871 219.199 998.635 222.861C998.399 226.524 997.478 229.958 995.925 232.967C994.371 235.977 992.215 238.503 989.581 240.402C986.946 242.3 983.885 243.534 980.57 244.033C977.256 244.531 973.754 244.285 970.265 243.308C966.775 242.33 963.366 240.641 960.232 238.337C958.518 237.066 956.898 235.628 955.397 234.046L858.466 131.131L856.772 129.322C855.229 127.683 854.061 125.692 853.397 123.572L832.571 57.107L846.111 66.1281L798.105 73.6281L796.902 73.8103C795.062 74.099 793.047 73.5468 791.3 72.2751C789.553 71.0034 788.216 69.1164 787.584 67.0288C787.517 66.8028 787.457 66.5721 787.404 66.3503L778.616 27.1319C778.355 25.9644 778.519 24.8206 779.074 23.952C779.629 23.0834 780.528 22.561 781.574 22.4996C782.462 22.4579 783.396 22.7499 784.225 23.3286C785.054 23.9073 785.731 24.739 786.147 25.6902V25.6902Z" fill="#01092E"/>
<path d="M837.733 60.4164L813.106 33.9149L812.374 33.1277C811.809 32.5197 811.387 31.7804 811.157 30.9954C810.928 30.2104 810.9 29.4119 811.077 28.6925L814.004 16.8894C814.221 16.0281 814.766 15.3601 815.52 15.0305C816.274 14.701 817.176 14.7365 818.03 15.1294C818.734 15.4531 819.362 16.0008 819.82 16.6893C820.278 17.3778 820.54 18.1695 820.566 18.944L820.881 31.7624L818.829 26.5048L846.127 49.5367C847.779 50.9338 848.966 52.8909 849.425 54.9775C849.884 57.0642 849.578 59.1093 848.574 60.6632C847.571 62.217 845.952 63.1522 844.074 63.2631C842.196 63.3739 840.213 62.6513 838.56 61.2543C838.272 60.9911 837.995 60.7113 837.733 60.4164V60.4164Z" fill="#01092E"/>
<path d="M798.608 73.0595L772.795 96.884L772.551 97.1107C771.888 97.7161 771.06 98.0986 770.142 98.2239C769.224 98.3492 768.244 98.2133 767.291 97.8286L724.081 80.0145L723.52 79.7797C722.698 79.4373 721.94 78.8518 721.342 78.0978C720.745 77.3438 720.335 76.4554 720.165 75.5457L716.86 57.6888C716.771 57.2139 716.768 56.7434 716.85 56.3043C716.931 55.8652 717.097 55.4661 717.337 55.1299C717.577 54.7936 717.887 54.5269 718.248 54.345C718.61 54.1631 719.016 54.0696 719.444 54.0698C720.199 54.0676 720.986 54.358 721.668 54.891C722.35 55.4239 722.885 56.1661 723.181 56.9897L729.487 74.4927L725.564 70.0287L769.148 85.4091L763.639 86.3447L787.649 60.4343C788.874 59.1058 790.643 58.4796 792.567 58.6935C794.492 58.9074 796.414 59.9439 797.911 61.575C799.409 63.2061 800.359 65.2981 800.552 67.3909C800.745 69.4837 800.166 71.4057 798.941 72.7343L798.608 73.0595Z" fill="#01092E"/>
<path d="M858.554 116.58L827.727 123.997L826.832 124.22C826.049 124.403 825.2 124.368 824.355 124.118C823.51 123.869 822.695 123.411 821.977 122.783L796.963 100.71C796.146 99.9326 795.568 98.9064 795.339 97.8266C795.11 96.7469 795.246 95.6889 795.721 94.8541C796.196 94.0192 796.977 93.4657 797.916 93.2989C798.854 93.1321 799.884 93.3636 800.81 93.9493L827.758 112.642L822.086 111.389L850.271 98.0695C852.264 97.3274 854.594 97.5011 856.791 98.5556C858.988 99.6101 860.89 101.467 862.111 103.752C863.333 106.037 863.784 108.579 863.375 110.868C862.965 113.156 861.724 115.019 859.902 116.082C859.475 116.294 859.024 116.46 858.554 116.58V116.58Z" fill="#01092E"/>
<path d="M921.149 186.026C915.47 185.268 909.708 184.386 904.022 183.415C898.336 182.444 892.594 181.42 886.875 180.368C881.156 179.317 875.436 178.202 869.705 176.992L861.116 175.235L852.519 173.343L861.799 162.24L862.216 167.241L862.57 172.27L863.216 182.331C863.381 185.693 863.603 189.03 863.856 192.384C864.11 195.738 864.385 199.077 864.725 202.437L864.818 203.324C864.911 204.258 864.77 205.152 864.41 205.912C864.05 206.672 863.485 207.27 862.773 207.642C856.607 210.821 850.453 214.017 844.369 217.319L835.237 222.265C832.219 223.951 829.177 225.603 826.189 227.334C825.436 227.743 824.505 227.781 823.592 227.44C822.68 227.099 821.858 226.406 821.298 225.507C820.739 224.608 820.487 223.573 820.596 222.62C820.704 221.667 821.164 220.872 821.878 220.401C824.808 218.581 827.685 216.681 830.579 214.808L839.226 209.057C844.967 205.239 850.719 201.312 856.412 197.36L854.46 202.565C853.512 199.224 852.495 195.891 851.473 192.548C850.451 189.206 849.361 185.87 848.271 182.534L845.008 172.523L843.44 167.519L841.948 162.504C841.562 161.21 841.404 159.895 841.484 158.635C841.563 157.374 841.879 156.192 842.412 155.157C842.946 154.122 843.686 153.254 844.592 152.602C845.498 151.95 846.551 151.528 847.69 151.358C848.212 151.289 848.745 151.263 849.286 151.283L851.228 151.401L859.737 151.917L868.261 152.564C873.946 152.959 879.631 153.508 885.333 154.02C891.035 154.532 896.709 155.127 902.404 155.784C908.099 156.442 913.823 157.158 919.501 157.993C922.947 158.477 926.342 160.417 928.94 163.386C931.537 166.355 933.124 170.11 933.352 173.825C933.579 177.539 932.429 180.91 930.153 183.194C927.878 185.478 924.664 186.49 921.218 186.006L921.149 186.026Z" fill="#01092E"/>
<path d="M854.392 166.753L826.786 187.825L826.381 188.094C825.609 188.67 824.63 188.911 823.598 188.779C822.566 188.647 821.54 188.15 820.68 187.366L795.331 164.231L795.16 163.973C794.463 163.329 793.958 162.475 793.736 161.567C793.515 160.658 793.591 159.754 793.95 159.017L804.838 136.542C805.149 135.883 805.713 135.433 806.41 135.289C807.108 135.145 807.882 135.317 808.568 135.77C809.254 136.223 809.797 136.92 810.08 137.712C810.363 138.504 810.364 139.327 810.083 140.006L800.649 163.472L799.207 158.324L825.827 179.527L819.723 179.118L843.884 153.808C845.146 152.491 846.943 151.878 848.882 152.105C850.82 152.332 852.741 153.38 854.22 155.019C855.7 156.658 856.618 158.753 856.773 160.843C856.927 162.933 856.306 164.848 855.044 166.166C854.839 166.377 854.622 166.573 854.392 166.753Z" fill="#01092E"/>
<path d="M825.1 188.84L796.694 199.767C796.158 199.98 795.531 199.952 794.937 199.687C794.344 199.423 793.828 198.942 793.492 198.34C793.157 197.738 793.025 197.06 793.125 196.44C793.224 195.819 793.547 195.303 794.03 194.993L819.223 178.327C820.339 177.663 821.728 177.539 823.101 177.98C824.474 178.422 825.723 179.395 826.589 180.696C827.454 181.998 827.868 183.526 827.744 184.963C827.621 186.399 826.969 187.633 825.925 188.405C825.667 188.579 825.391 188.725 825.1 188.84V188.84Z" fill="#01092E"/>
<path d="M849.161 214.386L854.413 248.64C854.525 249.309 854.405 249.947 854.077 250.428C853.75 250.909 853.238 251.196 852.645 251.233C852.052 251.269 851.421 251.053 850.877 250.626C850.334 250.2 849.918 249.594 849.713 248.931L838.817 215.016C838.324 213.479 838.382 211.914 838.979 210.667C839.576 209.419 840.663 208.591 842.001 208.364C843.339 208.137 844.818 208.531 846.113 209.457C847.408 210.384 848.412 211.768 848.906 213.306C849.019 213.663 849.104 214.025 849.161 214.386V214.386Z" fill="#01092E"/>
<path d="M769.537 90.0775L775.514 113.216L775.698 113.928C776.1 115.507 775.933 117.066 775.234 118.263C774.536 119.461 773.362 120.2 771.97 120.32C771.731 120.334 771.489 120.334 771.244 120.32L732.123 117.762L735.531 114.791L729.471 147.394C729.289 148.239 728.796 148.905 728.094 149.256C727.391 149.606 726.533 149.616 725.694 149.281C724.855 148.947 724.099 148.295 723.581 147.458C723.063 146.621 722.823 145.664 722.909 144.781L727.132 111.443C727.243 110.588 727.602 109.847 728.163 109.318C728.723 108.789 729.458 108.498 730.268 108.484L730.547 108.481L769.193 108.016L764.942 115.134L755.878 92.5487C755.46 91.5207 755.219 90.4539 755.17 89.4098C755.12 88.3657 755.262 87.365 755.589 86.4653C755.915 85.5656 756.418 84.7848 757.071 84.1678C757.723 83.5509 758.51 83.1101 759.388 82.8708C760.265 82.6315 761.216 82.5985 762.184 82.7737C763.152 82.9489 764.119 83.3287 765.028 83.8914C765.938 84.4541 766.773 85.1884 767.485 86.0521C768.196 86.9157 768.77 87.8916 769.174 88.9234C769.318 89.3041 769.439 89.6897 769.537 90.0775Z" fill="#01092E"/>
<path fill-rule="evenodd" clip-rule="evenodd" d="M519.557 384.867C512.712 383.222 506.537 391.448 505.28 396.022C504.022 400.595 501.815 408.849 495.389 408.682C488.962 408.514 490.248 399.368 490.248 399.368C499.552 362.559 481.083 338.382 449.818 341.227C418.553 344.071 415.2 380.963 415.2 380.963C408.774 389.831 402.124 374.355 397.402 372.207C389.383 368.582 387.567 370.172 378.486 375.47C374.764 377.682 371.937 381.125 370.495 385.202C369.769 388.409 372.87 388.465 373.932 386.819C375.661 384.322 378.149 382.445 381.029 381.465C376.251 384.7 374.072 388.186 374.183 390.417C374.295 392.647 376.447 393.484 377.871 391.17C379.244 388.595 381.355 386.488 383.934 385.118C376.027 392.062 380.274 397.778 382.621 394.488C385.974 389.775 389.634 388.046 390.808 389.218C391.981 390.389 392.009 392.536 387.232 394.516C384.13 395.826 385.471 397.862 386.561 398.113C387.921 398.283 389.302 398.118 390.583 397.632C391.864 397.146 393.006 396.353 393.909 395.324C395.362 404.359 396.117 401.069 399.106 410.968C402.096 420.867 384.242 433.277 373.96 443.985C363.678 454.693 361.945 472.595 366.081 476.22C370.216 479.845 372.451 469.862 375.385 464.564C378.318 459.266 383.236 461.58 382.677 463.95C381.835 466.553 380.798 469.088 379.576 471.535C376.782 478.813 371.445 499.253 382.37 507.368C393.295 515.483 393.853 494.68 398.324 489.02C402.794 483.359 408.829 487.151 407.991 492.979C406.623 500.97 407.755 509.188 411.232 516.515C415.842 527.083 423.275 528.143 427.27 512.694C431.266 497.246 437.384 497.664 451.355 487.207C465.325 476.75 478.96 451.737 481.698 449.534C484.436 447.331 497.596 434.253 497.596 434.253C513.606 416.322 516.288 403.272 515.478 401.292C514.668 399.312 515.478 397.416 516.987 397.444C518.496 397.472 518.021 402.128 518.887 404.276C519.753 406.423 521.345 405.196 522.1 403.021C522.455 400.752 522.331 398.435 521.737 396.217C522.798 397.695 523.804 401.069 525.089 402.547C525.327 402.725 525.614 402.827 525.911 402.837C526.209 402.848 526.502 402.767 526.752 402.606C527.002 402.445 527.196 402.211 527.309 401.936C527.421 401.661 527.446 401.358 527.381 401.069C526.903 398.63 526.075 396.272 524.922 394.07C526.252 394.785 527.355 395.857 528.107 397.165C529.225 399.256 530.426 398.448 530.426 398.448C533.276 395.882 526.403 386.513 519.557 384.867ZM403.633 414.956C403.366 416.19 402.953 417.388 402.403 418.525L401.369 420.031C401.369 420.031 400.196 421.286 401.174 418.163C401.174 418.163 402.375 414.426 402.627 412.892C402.746 411.659 402.746 410.417 402.627 409.183C402.627 409.183 402.627 408.626 403.213 409.183C403.676 411.071 403.817 413.022 403.633 414.956V414.956ZM408.159 413.812C408.159 413.812 407.852 414.621 407.321 413.534C407.824 411.582 408.075 411.777 408.075 411.777C408.075 411.777 408.243 411.247 408.606 411.916C408.969 412.586 409.221 411.414 408.159 413.896V413.812ZM481.223 397.081C480.452 398.695 479.158 400.002 477.551 400.791C475.944 401.581 474.117 401.806 472.366 401.431C469.32 400.595 469.348 399.005 469.348 399.005L471.472 399.786C473.091 400.497 474.906 400.624 476.609 400.145C478.311 399.667 479.794 398.614 480.804 397.165L481.223 397.081ZM466.47 385.118C467.085 380.936 468.482 376.195 472.813 375.888H473.176C479.966 376.111 481.558 388.743 479.938 393.596C478.513 397.639 473.316 400.985 469.125 397.36C465.856 394.572 465.94 388.799 466.47 385.174V385.118ZM446.158 397.332C444.597 398.008 442.902 398.319 441.203 398.241C439.503 398.164 437.844 397.7 436.351 396.886C435.415 396.455 434.595 395.807 433.958 394.998C433.322 394.188 432.888 393.239 432.691 392.229C432.691 392.229 432.495 391.309 433.221 391.671L433.808 392.201C434.311 393.177 433.305 392.201 435.513 394.488C437.122 395.951 439.145 396.883 441.305 397.158C443.465 397.432 445.657 397.035 447.583 396.022H447.946C447.419 396.561 446.817 397.021 446.158 397.388V397.332ZM448.281 393.651C442.162 398.141 434.032 395.129 434.982 387.238C435.792 380.238 440.57 372.821 447.415 372.458H447.862C449.183 372.513 450.463 372.933 451.558 373.671C452.654 374.41 453.522 375.438 454.065 376.641C456.719 382.609 453.143 390.11 448.281 393.707V393.651ZM455.63 406.339C453.869 405.196 456.021 400.539 458.647 400.567C461.274 400.595 458.759 408.319 455.63 406.395V406.339ZM484.352 440.443C479.499 444.726 475.482 449.87 472.506 455.613L471.835 456.7C471.472 457.23 471.137 457.788 470.773 458.346C469.041 460.939 467.337 463.56 465.465 466.014L464.99 466.265C464.99 466.265 466.415 463.895 467.42 462.166C472.031 454.163 475.104 444.933 484.185 438.798C484.619 438.719 485.064 438.719 485.498 438.798C485.079 440.75 485.163 439.885 484.352 440.499V440.443Z" fill="#01092E"/>
</g>
<defs>
<filter id="filter0_f_1647_757" x="167" y="-99" width="968" height="968" filterUnits="userSpaceOnUse" color-interpolation-filters="sRGB">
<feFlood flood-opacity="0" result="BackgroundImageFix"/>
<feBlend mode="normal" in="SourceGraphic" in2="BackgroundImageFix" result="shape"/>
<feGaussianBlur stdDeviation="60" result="effect1_foregroundBlur_1647_757"/>
</filter>
<filter id="filter1_d_1647_757" x="665.492" y="545.626" width="45.1953" height="42.9688" filterUnits="userSpaceOnUse" color-interpolation-filters="sRGB">
<feFlood flood-opacity="0" result="BackgroundImageFix"/>
<feColorMatrix in="SourceAlpha" type="matrix" values="0 0 0 0 0 0 0 0 0 0 0 0 0 0 0 0 0 0 127 0" result="hardAlpha"/>
<feOffset/>
<feGaussianBlur stdDeviation="8"/>
<feComposite in2="hardAlpha" operator="out"/>
<feColorMatrix type="matrix" values="0 0 0 0 1 0 0 0 0 0.886275 0 0 0 0 0 0 0 0 1 0"/>
<feBlend mode="normal" in2="BackgroundImageFix" result="effect1_dropShadow_1647_757"/>
<feBlend mode="normal" in="SourceGraphic" in2="effect1_dropShadow_1647_757" result="shape"/>
</filter>
<filter id="filter2_f_1647_757" x="485.734" y="123.686" width="237.18" height="237.921" filterUnits="userSpaceOnUse" color-interpolation-filters="sRGB">
<feFlood flood-opacity="0" result="BackgroundImageFix"/>
<feBlend mode="normal" in="SourceGraphic" in2="BackgroundImageFix" result="shape"/>
<feGaussianBlur stdDeviation="2" result="effect1_foregroundBlur_1647_757"/>
</filter>
<filter id="filter3_f_1647_757" x="516.93" y="101" width="130.125" height="110.18" filterUnits="userSpaceOnUse" color-interpolation-filters="sRGB">
<feFlood flood-opacity="0" result="BackgroundImageFix"/>
<feBlend mode="normal" in="SourceGraphic" in2="BackgroundImageFix" result="shape"/>
<feGaussianBlur stdDeviation="2" result="effect1_foregroundBlur_1647_757"/>
</filter>
<filter id="filter4_f_1647_757" x="587.395" y="164.328" width="11.5469" height="9.64941" filterUnits="userSpaceOnUse" color-interpolation-filters="sRGB">
<feFlood flood-opacity="0" result="BackgroundImageFix"/>
<feBlend mode="normal" in="SourceGraphic" in2="BackgroundImageFix" result="shape"/>
<feGaussianBlur stdDeviation="2" result="effect1_foregroundBlur_1647_757"/>
</filter>
<filter id="filter5_f_1647_757" x="478" y="195.045" width="84.8789" height="75.3267" filterUnits="userSpaceOnUse" color-interpolation-filters="sRGB">
<feFlood flood-opacity="0" result="BackgroundImageFix"/>
<feBlend mode="normal" in="SourceGraphic" in2="BackgroundImageFix" result="shape"/>
<feGaussianBlur stdDeviation="2" result="effect1_foregroundBlur_1647_757"/>
</filter>
<clipPath id="clip0_1647_757">
<rect width="1440" height="1024" rx="24" fill="white"/>
</clipPath>
</defs>
</svg>
