<svg width="123" height="123" viewBox="0 0 123 123" fill="none" xmlns="http://www.w3.org/2000/svg">
<g clip-path="url(#clip0_1657_4456)">
<path d="M0 0H123L62.25 62.25L0 123V0Z" fill="#01092E"/>
<path fill-rule="evenodd" clip-rule="evenodd" d="M60.9605 32.8063C59.4812 34.2133 58.0021 35.6204 56.5229 37.0274C56.7946 32.7956 55.3966 29.1788 52.3288 26.177C50.2213 23.6836 47.6057 21.9699 44.4818 21.0359C43.262 20.7111 42.0534 20.7472 40.856 21.1441C39.9101 21.7699 39.0082 22.4554 38.1502 23.2005C36.0908 23.2551 34.287 23.9767 32.7385 25.3652C32.1116 23.8137 31.3088 22.3616 30.3302 21.0088C30.2181 21.0901 30.1459 21.1984 30.1138 21.3335C30.3032 22.145 30.3663 22.9658 30.3032 23.7958C30.2012 24.1739 30.057 24.5346 29.8703 24.8782C29.6588 25.1848 29.3882 25.4192 29.0585 25.5817C28.5384 25.5587 28.0513 25.4144 27.5973 25.1487C26.1554 24.233 24.6942 23.3492 23.2139 22.497C22.4201 22.1362 22.2037 22.3527 22.5645 23.1464C23.4635 24.6929 24.3834 26.2262 25.3244 27.7464C25.5103 28.1052 25.6185 28.484 25.6491 28.8828C25.3632 29.5633 24.8581 29.9963 24.1339 30.1816C23.1931 30.2897 22.2551 30.2536 21.3198 30.0734C21.1936 30.1217 21.1214 30.2118 21.1033 30.344C22.4586 31.2718 23.9017 32.0474 25.4327 32.671C24.0343 34.2337 23.2947 36.0557 23.2139 38.1368C22.3874 39.0042 21.684 39.9602 21.1033 41.005C20.8507 41.9873 20.8146 42.9795 20.9951 43.9815C21.8844 47.3722 23.6884 50.1863 26.4068 52.4237C27.8419 53.6911 29.4113 54.7555 31.1149 55.6166C32.6118 56.1837 34.1541 56.4813 35.7419 56.5095C34.9944 57.4542 34.1736 58.3652 33.2796 59.2424C34.2265 58.3497 35.1555 57.4387 36.0666 56.5095C36.4363 56.5004 36.8061 56.4734 37.176 56.4284C32.7745 60.902 28.337 65.3396 23.8633 69.7411C23.1926 69.5956 22.5613 69.3431 21.9692 68.9835C13.1421 63.6315 7.31555 56.001 4.48939 46.092C2.39739 37.647 3.26326 29.5114 7.087 21.6853C12.3563 12.2184 20.3115 6.53612 30.9526 4.6384C39.6827 3.47451 47.8363 5.18818 55.4135 9.77952C60.0771 12.9818 64.0096 16.9144 67.211 21.577C67.8381 22.5862 68.4334 23.6144 68.9968 24.6617C66.3578 27.4086 63.6791 30.1235 60.9605 32.8063Z" fill="#FEAB02"/>
<path fill-rule="evenodd" clip-rule="evenodd" d="M23.5688 13.9175C23.6688 13.8779 23.768 13.887 23.8664 13.9446C24.2061 14.3808 24.639 14.5611 25.1653 14.4858C25.2374 14.5219 25.3096 14.5579 25.3817 14.594C25.6326 14.4371 25.8761 14.2657 26.1123 14.0799C26.1664 14.134 26.2205 14.1881 26.2747 14.2422C26.0484 14.4505 25.841 14.676 25.6523 14.9187C25.7335 15.2012 25.7244 15.4808 25.6252 15.7575C25.7632 16.0728 25.9437 16.3614 26.1664 16.6234C26.1123 16.6775 26.0582 16.7316 26.0041 16.7857C25.8137 16.5775 25.6064 16.3881 25.3817 16.2175C25.0427 16.181 24.7 16.145 24.3535 16.1093C23.4401 16.6426 23.3498 16.5163 24.0829 15.7304C24.0107 15.4599 24.0107 15.1893 24.0829 14.9187C23.9429 14.5688 23.7715 14.235 23.5688 13.9175Z" fill="#FFFDFA"/>
<path fill-rule="evenodd" clip-rule="evenodd" d="M19.4518 19.8734C20.3484 18.8006 21.3495 18.6834 22.4553 19.5216C23.3498 20.944 23.0251 21.9903 21.4812 22.6604C19.9466 22.7078 19.207 21.9682 19.2624 20.4416C19.328 20.2447 19.3912 20.0553 19.4518 19.8734Z" fill="#FEFBF6"/>
<path fill-rule="evenodd" clip-rule="evenodd" d="M12.0438 27.713C12.1769 27.6962 12.3122 27.7052 12.4497 27.74C13.1254 28.4166 13.7658 28.3896 14.3709 27.6589C14.425 27.713 14.4791 27.7671 14.5332 27.8212C14.2953 28.0212 14.1239 28.2648 14.0191 28.5518C14.1363 28.7676 14.1633 28.993 14.1003 29.2283C14.2941 29.4835 14.4565 29.7541 14.5873 30.04C14.5443 30.0604 14.4992 30.0694 14.4521 30.0671C14.2717 29.9227 14.0913 29.7785 13.9109 29.6341C13.742 29.6362 13.5796 29.6723 13.4238 29.7424C13.2717 29.7385 13.1274 29.7024 12.9909 29.6341C12.7564 29.7604 12.5219 29.8867 12.2874 30.013C12.3399 29.7435 12.4662 29.509 12.6662 29.3094C12.6928 28.6956 12.4853 28.1635 12.0438 27.713Z" fill="#FFFBF3"/>
<path fill-rule="evenodd" clip-rule="evenodd" d="M19.9393 20.0368C20.7413 19.2518 21.5082 19.2788 22.2397 20.118C22.6715 21.1309 22.3648 21.8165 21.3195 22.1748C20.5383 22.1948 20.0151 21.8339 19.7499 21.0922C19.7141 20.7155 19.7772 20.3637 19.9393 20.0368Z" fill="#074E1B"/>
<path fill-rule="evenodd" clip-rule="evenodd" d="M23.0814 23.0621C24.5534 23.8665 26.0055 24.7233 27.4379 25.6327C29.1575 26.5195 30.2579 26.0144 30.739 24.1174C30.775 23.8468 30.8112 23.5762 30.8472 23.3056C30.9735 23.3598 31.0637 23.4499 31.1178 23.5762C31.4749 24.3537 31.8808 25.1024 32.3354 25.8221C32.1163 26.141 31.8547 26.4206 31.5508 26.6609C30.3575 27.0275 29.2842 27.6138 28.3308 28.4197C27.6201 29.3449 27.088 30.3641 26.7343 31.4773C26.4941 31.7812 26.2145 32.0428 25.8955 32.262C25.0029 31.7845 24.1281 31.2884 23.2709 30.7738C24.3396 30.7845 25.2234 30.3877 25.9226 29.5832C26.1185 29.2662 26.1906 28.9235 26.1391 28.555C26.0168 28.0395 25.8184 27.5525 25.5438 27.0938C24.701 25.7614 23.8803 24.4175 23.0814 23.0621Z" fill="#054E1B"/>
<path fill-rule="evenodd" clip-rule="evenodd" d="M18.6962 28.4224C19.8189 27.3779 20.694 27.5493 21.3214 28.9366C21.3414 29.7178 20.9805 30.2411 20.2389 30.5063C19.4068 30.5756 18.8475 30.2147 18.5609 29.4237C18.5299 29.0707 18.5751 28.7369 18.6962 28.4224Z" fill="#FEFCF7"/>
<path fill-rule="evenodd" clip-rule="evenodd" d="M27.9582 19.1627C28.9222 18.1791 29.7792 18.2602 30.5292 19.4062C30.7229 20.3149 30.3801 20.9284 29.5008 21.2466C28.4213 21.2755 27.862 20.7522 27.8229 19.6769C27.8925 19.5054 27.9376 19.334 27.9582 19.1627Z" fill="#FEFCF7"/>
<path fill-rule="evenodd" clip-rule="evenodd" d="M40.9344 10.2968C41.1941 10.1435 41.4467 9.96308 41.6921 9.75564C41.7101 9.73762 41.7282 9.71955 41.7462 9.70152C41.8184 9.77367 41.8905 9.84586 41.9627 9.918C41.5922 10.2535 41.2675 10.6143 40.9885 11.0004C41.051 11.1877 41.1141 11.3771 41.178 11.5687C41.1337 11.8421 41.1157 12.1127 41.1238 12.3805C41.3217 12.7811 41.5653 13.1509 41.8544 13.4899C41.7824 13.5909 41.6922 13.645 41.5839 13.6523C41.2857 13.3361 40.9699 13.0384 40.6368 12.7593C40.5859 12.7499 40.5409 12.759 40.5015 12.7863C40.0625 12.9391 39.6386 12.894 39.2296 12.651C39.1526 12.6467 39.0895 12.6737 39.0402 12.7322C38.7457 12.7949 38.4751 12.9212 38.2284 13.1111C38.1667 13.0946 38.1036 13.1036 38.039 13.1381C38.2831 12.7917 38.5267 12.458 38.7696 12.1369C38.6164 11.7301 38.6253 11.3243 38.7967 10.9192C38.7688 10.7821 38.7056 10.6648 38.6073 10.5674C38.6383 10.4659 38.6112 10.3666 38.5261 10.2698C38.4135 10.112 38.2962 9.95865 38.1743 9.80976C38.0909 9.69703 38.0368 9.57077 38.0119 9.43092C38.0907 9.40381 38.1718 9.39477 38.2555 9.40386C38.6784 9.69092 39.0753 10.0156 39.4461 10.378C39.811 10.3327 40.1628 10.3779 40.5015 10.5133C40.6677 10.4843 40.812 10.4122 40.9344 10.2968Z" fill="#FFFDF9"/>
<path fill-rule="evenodd" clip-rule="evenodd" d="M19.1798 28.5873C19.8927 28.055 20.443 28.1904 20.8307 28.9932C20.8402 29.6923 20.4974 30.0352 19.8023 30.0216C19.09 29.761 18.8826 29.2829 19.1798 28.5873Z" fill="#0D501C"/>
<path fill-rule="evenodd" clip-rule="evenodd" d="M28.4385 19.3291C28.8806 18.9167 29.3497 18.8806 29.8458 19.2208C30.1796 19.6698 30.1706 20.1118 29.8188 20.5469C29.1023 20.9457 28.5971 20.7652 28.3032 20.0056C28.2949 19.7624 28.34 19.5369 28.4385 19.3291Z" fill="#10511C"/>
<path fill-rule="evenodd" clip-rule="evenodd" d="M38.1819 9.80344C38.3039 9.95234 38.4211 10.1057 38.5337 10.2635C38.6189 10.3603 38.6459 10.4596 38.6149 10.5612C38.4127 10.3327 38.2683 10.0801 38.1819 9.80344Z" fill="#FFE6B6"/>
<path fill-rule="evenodd" clip-rule="evenodd" d="M38.7731 12.1359C38.5301 12.4571 38.2866 12.7908 38.0424 13.1373C38.107 13.1027 38.1701 13.0937 38.2318 13.1102C38.1777 13.1643 38.1236 13.2185 38.0695 13.2726C38.0153 13.2185 37.9612 13.1643 37.9071 13.1102C38.1689 12.7626 38.4577 12.4378 38.7731 12.1359Z" fill="#FFDD9A"/>
<path fill-rule="evenodd" clip-rule="evenodd" d="M40.9362 10.2966C41.1473 10.0403 41.3999 9.85991 41.694 9.75528C41.4485 9.96275 41.1959 10.1432 40.9362 10.2966Z" fill="#FFD88B"/>
<path fill-rule="evenodd" clip-rule="evenodd" d="M38.2305 13.1104C38.4772 12.9205 38.7478 12.7941 39.0424 12.7315C38.8075 12.9483 38.5368 13.0746 38.2305 13.1104Z" fill="#FFDF9E"/>
<path fill-rule="evenodd" clip-rule="evenodd" d="M41.755 9.69376C41.9091 9.66248 42.0355 9.7166 42.1339 9.85614C41.755 10.235 41.3761 10.6139 40.9972 10.9928C41.2762 10.6066 41.601 10.2458 41.9715 9.91027C41.8993 9.83812 41.8271 9.76591 41.755 9.69376Z" fill="#FFCE6E"/>
<path fill-rule="evenodd" clip-rule="evenodd" d="M40.5039 12.7817C40.5433 12.7544 40.5884 12.7453 40.6392 12.7547C40.9724 13.0339 41.2882 13.3316 41.5864 13.6478C41.2284 13.3707 40.8676 13.082 40.5039 12.7817Z" fill="#FFE0A3"/>
<path fill-rule="evenodd" clip-rule="evenodd" d="M28.2743 29.0186C29.8851 27.3575 31.8243 26.681 34.0919 26.9893C34.8451 27.1561 35.5938 27.3455 36.3378 27.5575C35.2286 26.6591 33.9478 26.2803 32.4954 26.421C34.4438 24.2385 36.8519 23.3817 39.7201 23.8505C40.2601 24.0064 40.7832 24.2048 41.2895 24.4458C42.108 24.9091 42.9378 25.342 43.7788 25.7446C43.3974 25.183 42.9103 24.7321 42.3177 24.3916C41.2957 23.8285 40.2133 23.4497 39.0707 23.2552C39.8436 22.2791 40.8357 21.6477 42.0471 21.3611C43.1377 21.2893 44.202 21.4337 45.24 21.794C48.1173 22.8855 50.5165 24.6353 52.4376 27.0434C55.4985 30.344 56.617 34.1863 55.7928 38.5703C55.6272 39.2478 55.3566 39.8792 54.9811 40.4644C54.3858 41.1347 53.7364 41.748 53.0328 42.3044C53.2855 41.3881 53.2494 40.4861 52.9246 39.5985C52.8975 39.6075 52.8705 39.6166 52.8434 39.6256C52.726 40.277 52.6629 40.9354 52.654 41.6008C52.3032 43.1715 51.4915 44.4523 50.2188 45.4431C50.3187 44.6624 50.2195 43.9138 49.9211 43.1973C49.8851 43.1973 49.8489 43.1973 49.8129 43.1973C49.7497 44.0161 49.7046 44.8369 49.6776 45.6596C49.26 47.284 48.3039 48.4926 46.8094 49.2855C46.5809 49.3907 46.3464 49.4809 46.1059 49.556C45.1498 49.6282 44.1938 49.7004 43.2377 49.7725C43.9412 50.1531 44.6989 50.2794 45.5106 50.1513C44.5548 51.4061 43.3101 52.2179 41.7765 52.5866C41.0752 52.5955 40.3806 52.6586 39.693 52.776C39.693 52.812 39.693 52.8482 39.693 52.8842C40.5527 53.236 41.4276 53.2811 42.3177 53.0195C41.7589 53.7209 41.1456 54.3703 40.4777 54.9677C39.3471 55.5973 38.1385 55.9401 36.8519 55.996C33.1564 56.1889 29.9455 55.0163 27.219 52.4784C24.2504 50.1632 22.3203 47.1868 21.4285 43.549C21.3743 43.0836 21.3563 42.6146 21.3744 42.142C21.5335 41.6287 21.7139 41.1236 21.9156 40.6267C22.2688 40.0171 22.7288 39.503 23.2956 39.0844C23.5803 40.6731 24.2387 42.0891 25.2708 43.3326C25.4283 43.5028 25.6087 43.6291 25.812 43.7114C25.1768 42.5853 24.5996 41.4308 24.0803 40.2479C23.5213 38.2949 23.7198 36.4189 24.6755 34.6197C25.142 33.7753 25.7373 33.0357 26.4614 32.4009C26.3355 33.8054 26.6783 35.0861 27.4896 36.2433C27.5347 36.2523 27.5798 36.2613 27.6249 36.2703C27.4355 35.5578 27.2461 34.8452 27.0567 34.1327C26.8724 32.9703 26.9807 31.8339 27.3814 30.7233C27.6624 30.1358 27.9601 29.5675 28.2743 29.0186Z" fill="#FF8002"/>
<path fill-rule="evenodd" clip-rule="evenodd" d="M15.665 52.885C15.5216 52.9012 15.3773 52.9372 15.232 52.9933C15.223 52.9662 15.214 52.9391 15.205 52.9121C15.3803 52.7007 15.4975 52.4752 15.5567 52.2356C15.4032 51.9161 15.376 51.5823 15.4756 51.2344C15.4234 51.0972 15.3783 50.9619 15.3403 50.8285C15.1953 50.5626 15.0149 50.3101 14.7991 50.0708C14.659 49.9465 14.668 49.8654 14.8261 49.8273C15.2801 49.9815 15.6769 50.2341 16.0168 50.5849C16.4072 50.5038 16.795 50.5127 17.1803 50.612C17.517 50.3782 17.8237 50.1077 18.1004 49.8002C18.2009 49.8776 18.264 49.9768 18.2898 50.0979C18.0468 50.3949 17.7852 50.6745 17.5051 50.9367C17.7728 51.3453 17.8359 51.7873 17.6945 52.2626C17.912 52.6158 18.1555 52.9496 18.4251 53.2639C18.3448 53.3593 18.2456 53.3863 18.1274 53.345C17.8611 53.1407 17.5905 52.9423 17.3156 52.7497C16.8646 52.9662 16.4137 52.9662 15.9626 52.7497C15.867 52.8227 15.7678 52.8678 15.665 52.885Z" fill="#FFFDF7"/>
<path fill-rule="evenodd" clip-rule="evenodd" d="M14.8023 50.0659C15.0181 50.3052 15.1986 50.5578 15.3435 50.8237C15.0873 50.6126 14.9069 50.36 14.8023 50.0659Z" fill="#FFDE9D"/>
<path fill-rule="evenodd" clip-rule="evenodd" d="M27.9019 37.9412C27.9508 37.8762 28.0139 37.8311 28.0913 37.8059C28.6 37.7878 29.1052 37.8058 29.6067 37.86C31.1705 38.1306 32.74 38.3652 34.3151 38.5636C34.4116 38.607 34.4928 38.6702 34.5587 38.753C32.8826 40.5398 31.1598 42.2807 29.3902 43.9756C29.2528 44.0671 29.1446 44.049 29.0655 43.9214C28.6994 41.9219 28.3115 39.9285 27.9019 37.9412Z" fill="#FFFEFD"/>
<path fill-rule="evenodd" clip-rule="evenodd" d="M37.8515 27.9911C37.9138 27.9103 37.995 27.8652 38.095 27.8558C40.0573 28.2574 42.0237 28.6362 43.9941 28.9923C44.1216 29.0714 44.1397 29.1796 44.0482 29.317C42.3544 31.0877 40.6135 32.8105 38.8256 34.4855C38.7428 34.4196 38.6797 34.3384 38.6362 34.2419C38.282 32.1694 38.0204 30.0857 37.8515 27.9911Z" fill="#FFFEFD"/>
<path fill-rule="evenodd" clip-rule="evenodd" d="M15.5541 52.2364C15.4949 52.4761 15.3776 52.7017 15.2023 52.913C15.2112 52.9401 15.2203 52.9671 15.2293 52.9942C15.3747 52.9382 15.519 52.9021 15.6623 52.886C15.4586 53.0691 15.224 53.1953 14.9587 53.2648C14.9644 53.1177 15.0095 52.9824 15.094 52.8589C15.2656 52.6604 15.419 52.4529 15.5541 52.2364Z" fill="#FFEFCC"/>
<path fill-rule="evenodd" clip-rule="evenodd" d="M36.0696 36.1604C36.2701 36.0239 36.4956 35.9788 36.746 36.0251C37.4676 36.1694 38.1892 36.3137 38.9107 36.4581C39.0369 36.5063 39.1091 36.5965 39.1272 36.7286C38.806 37.1723 38.4453 37.5872 38.0448 37.9733C37.684 38.3161 37.3233 38.6588 36.9625 39.0016C36.6817 39.089 36.5194 38.9808 36.4754 38.6769C36.3225 37.8386 36.1872 36.9998 36.0696 36.1604Z" fill="#FFFDFC"/>
<path fill-rule="evenodd" clip-rule="evenodd" d="M26.8711 47.957C27.5175 47.9843 28.176 47.9933 28.8464 47.9841C29.5726 47.8263 30.2942 47.6459 31.011 47.4429C31.7542 47.3988 32.4036 47.6333 32.9593 48.1464C33.5697 48.4059 34.0388 48.2435 34.3663 47.6594C34.4563 47.5086 34.5105 47.3463 34.5286 47.1723C34.3625 46.6228 34.1641 46.0817 33.9334 45.5488C34.0465 44.5755 34.6058 44.0885 35.611 44.0877C36.2662 44.2715 36.8254 44.6142 37.2886 45.1159C37.7719 45.418 38.1688 45.3278 38.4792 44.8453C38.6865 44.446 38.6234 44.0943 38.2898 43.79C37.7746 43.4241 37.2335 43.0994 36.6663 42.8159C36.4589 42.5813 36.4139 42.3198 36.531 42.0312C36.9884 41.4377 37.5656 41.0048 38.2627 40.7324C38.7169 40.6245 39.1137 40.7328 39.4533 41.0571C39.6938 41.3469 39.9103 41.6536 40.1027 41.9771C40.2831 42.2297 40.4995 42.4461 40.7521 42.6265C40.866 42.6426 40.9742 42.6247 41.0768 42.5724C41.618 42.1034 42.1231 41.5983 42.5921 41.0571C42.743 40.7686 42.6799 40.525 42.4027 40.3265C42.1017 40.0808 41.7861 39.8553 41.4556 39.6501C40.9516 39.3569 40.7171 38.924 40.7521 38.3513C40.9884 37.6 41.4214 36.9866 42.0509 36.5113C42.1967 36.4029 42.3591 36.3669 42.538 36.4031C42.7725 36.5654 42.9709 36.7638 43.1333 36.9983C43.3126 37.4295 43.5471 37.8263 43.8368 38.1889C44.3802 38.6757 44.8673 38.6216 45.2979 38.0266C45.3521 37.8874 45.3702 37.7432 45.352 37.5936C44.9461 37.0162 44.5672 36.4209 44.2156 35.8078C44.0377 34.8281 44.4165 34.1787 45.352 33.8596C45.5524 33.8843 45.7508 33.9203 45.9473 33.9678C46.3781 34.2496 46.8471 34.412 47.3544 34.4548C47.8091 34.3156 48.1338 34.0269 48.3285 33.589C48.3466 33.4038 48.3286 33.2235 48.2744 33.0478C47.8835 32.5434 47.6129 31.9841 47.4626 31.3702C47.5864 30.5834 47.7668 29.8077 48.0038 29.0431C48.094 28.3353 48.076 27.6318 47.9497 26.9326C47.9709 26.8474 48.025 26.8294 48.112 26.8785C50.1458 30.121 51.1379 33.6386 51.0884 37.4313C51.0214 37.8166 50.8049 38.0512 50.439 38.1348C50.0529 37.8834 49.6921 37.5948 49.3567 37.2689C48.9732 37.3423 48.8108 37.5768 48.8697 37.9724C49.0598 38.3766 49.2944 38.7554 49.5732 39.1089C49.7896 39.5599 49.7896 40.0108 49.5732 40.4618C47.903 43.5947 45.612 46.1743 42.7003 48.2006C41.8742 48.875 40.9542 49.3621 39.9403 49.6617C39.7554 49.678 39.5751 49.66 39.3992 49.6076C38.987 49.3796 38.5901 49.1271 38.2086 48.85C37.638 48.6786 37.3675 48.877 37.3968 49.4452C37.5448 49.6413 37.7252 49.8037 37.938 49.9323C38.3351 50.3097 38.2991 50.6344 37.8298 50.9064C37.6023 50.9963 37.3678 51.0504 37.1263 51.0688C33.423 51.0072 30.0046 49.9699 26.8711 47.957Z" fill="#FFFEFE"/>
<path fill-rule="evenodd" clip-rule="evenodd" d="M35.7421 56.5093C35.8504 56.4733 35.9586 56.4733 36.0668 56.5093C35.1557 57.4385 34.2267 58.3495 33.2798 59.2422C34.1738 58.365 34.9946 57.454 35.7421 56.5093Z" fill="#FFC60C"/>
<path fill-rule="evenodd" clip-rule="evenodd" d="M56.5184 37.0304C57.9977 35.6233 59.4769 34.2162 60.9562 32.8091C59.4859 34.2975 57.9975 35.7678 56.4913 37.2199C56.482 37.1516 56.491 37.0884 56.5184 37.0304Z" fill="#FFE15D"/>
<path d="M35.0676 75.3045C35.1246 74.9935 35.0676 74.7526 34.8965 74.5815C34.6841 74.3691 34.3485 74.3004 33.8899 74.3756C34.2656 74.7046 34.6582 75.0143 35.0676 75.3045ZM37.0148 79.6848C36.7738 79.9257 36.5471 79.9918 36.3346 79.883C35.1712 79.2482 33.9741 78.3154 32.7433 77.0846C32.378 76.7192 32.0385 76.3591 31.725 76.0041C31.681 76.0792 31.6369 76.1673 31.5929 76.2684C31.5074 76.4731 31.4296 76.6104 31.3597 76.6804C31.2716 76.7685 31.1278 76.7931 30.9282 76.7542C30.7287 76.7153 30.5188 76.6376 30.2986 76.521C30.0783 76.4044 29.8957 76.2736 29.7506 76.1285C29.5381 75.916 29.472 75.7333 29.5523 75.5804C30.1017 74.5854 30.686 73.7783 31.3052 73.159C31.7613 72.703 32.2121 72.3635 32.6578 72.1407C33.1061 71.9153 33.5336 71.7883 33.9404 71.7598C34.3446 71.7287 34.7203 71.7805 35.0676 71.9153C35.4148 72.05 35.7179 72.2469 35.977 72.5061C36.3994 72.9284 36.6792 73.4751 36.8166 74.1462C36.9513 74.8148 36.8878 75.5234 36.6261 76.2723C36.8205 76.3733 37.0316 76.4757 37.2597 76.5793C37.4177 76.6493 37.5602 76.7166 37.6872 76.7814C37.8167 76.8436 37.9035 76.8967 37.9476 76.9408C38.0383 77.0315 38.0499 77.2556 37.9826 77.6132C37.9126 77.9682 37.7895 78.3452 37.6133 78.7442C37.4397 79.1458 37.2402 79.4593 37.0148 79.6848ZM43.7038 72.0941C43.4213 72.3765 43.1804 72.5579 42.9809 72.6382C42.7787 72.7159 42.5779 72.7172 42.3784 72.6421C42.1815 72.5644 41.9509 72.4348 41.6866 72.2534C41.6399 72.7768 41.5298 73.2471 41.3562 73.6643C41.18 74.0789 40.9572 74.4209 40.6877 74.6904C40.3923 74.9858 40.0529 75.1801 39.6694 75.2734C39.2859 75.3667 38.8791 75.3382 38.449 75.1879C38.0163 75.035 37.5809 74.7396 37.143 74.3017C36.4616 73.6202 35.8475 72.646 35.3008 71.3789C35.2308 71.1898 35.2541 70.9721 35.3707 70.726C35.4873 70.4746 35.6519 70.2427 35.8643 70.0302C36.025 69.8696 36.1986 69.7348 36.3851 69.626C36.5691 69.5146 36.7466 69.4485 36.9176 69.4278C37.086 69.4045 37.2273 69.4498 37.3413 69.5638C37.5434 69.7659 37.7494 70.0004 37.9593 70.2673C38.2961 70.6715 38.5824 70.9915 38.8182 71.2273C39.4738 71.8829 39.8922 72.12 40.0736 71.9386C40.2835 71.7287 40.1863 71.3543 39.7821 70.8153C39.5126 70.4578 39.0903 69.9914 38.5151 69.4161C38.2197 69.1208 38.0072 68.8927 37.8776 68.7321C37.7714 68.574 37.761 68.3978 37.8465 68.2035C37.932 68.004 38.0668 67.8122 38.2508 67.6283C38.4788 67.4002 38.7314 67.1917 39.0087 67.0025C39.2833 66.8108 39.5398 66.676 39.7782 66.5983C40.0192 66.518 40.1967 66.5348 40.3107 66.6488C40.4221 66.7602 40.5594 66.9261 40.7227 67.1463C40.8859 67.3666 41.0647 67.6127 41.2591 67.8848C41.5104 68.2346 41.7695 68.587 42.0364 68.942C42.3033 69.2969 42.5559 69.5936 42.7943 69.832C42.9498 69.9875 43.2348 70.2233 43.6494 70.5394C43.9111 70.7337 44.0963 70.8853 44.2052 70.9941C44.2855 71.0745 44.2764 71.2235 44.178 71.4411C44.0795 71.6588 43.9214 71.8764 43.7038 72.0941ZM51.792 63.967C51.5458 64.2132 51.2362 64.471 50.8631 64.7405C50.4899 65.0047 50.1324 65.1991 49.7903 65.3235C49.4483 65.4478 49.1879 65.4336 49.0091 65.2807C48.4313 64.7184 47.8301 64.1251 47.2057 63.5006C47.0114 63.3063 46.8377 63.1819 46.6849 63.1275C46.5346 63.0705 46.4322 63.0692 46.3778 63.1236C46.3312 63.1702 46.3299 63.2544 46.3739 63.3762C46.4154 63.4954 46.5229 63.6418 46.6965 63.8154L49.0635 66.1202C49.1231 66.1798 49.0791 66.3275 48.9314 66.5633C48.7837 66.7991 48.5803 67.0466 48.3212 67.3057C48.1294 67.4974 47.9208 67.6749 47.6954 67.8381C47.47 67.9962 47.2562 68.1011 47.0541 68.153C46.852 68.2048 46.6875 68.1672 46.5605 68.0403C46.1718 67.6516 45.743 67.1891 45.274 66.6527C44.9838 66.3262 44.7778 66.1021 44.656 65.9803C44.5031 65.8274 44.3814 65.729 44.2907 65.6849C44.2 65.6357 44.1365 65.6292 44.1002 65.6655C44.0458 65.7199 44.0549 65.8508 44.1274 66.058C44.2 66.2601 44.3334 66.5076 44.5278 66.8004C44.7247 67.0906 44.9799 67.3925 45.2934 67.706C45.3945 67.8071 45.5331 67.9275 45.7093 68.0675C45.8855 68.2074 46.05 68.3356 46.2029 68.4522C46.3532 68.5663 46.4413 68.6362 46.4672 68.6621C46.5527 68.7476 46.5359 68.9122 46.4167 69.1557C46.2975 69.3993 46.1174 69.6416 45.8764 69.8825C45.4489 70.3101 45.0732 70.4707 44.7493 70.3645C44.2959 70.2013 43.6999 69.8281 42.9614 69.2451C42.2204 68.6595 41.5557 68.0726 40.9676 67.4845C40.61 67.1269 40.3198 66.8056 40.0969 66.5206C39.9803 66.3573 39.97 66.1708 40.0658 65.9609C40.1643 65.7484 40.3133 65.5424 40.5128 65.3429C40.7279 65.1278 40.9663 64.9309 41.228 64.7521C41.4871 64.5707 41.7306 64.4438 41.9587 64.3712C42.1841 64.2961 42.3499 64.3116 42.4562 64.4179L42.6971 64.6588C42.7515 63.91 42.9511 63.3633 43.2957 63.0187C43.4926 62.8217 43.7349 62.7012 44.0225 62.6572C44.3101 62.608 44.6405 62.6455 45.0136 62.7699C45.1535 61.7283 45.4696 60.9613 45.9619 60.469C46.3014 60.1295 46.716 59.9404 47.2057 59.9015C47.698 59.8601 48.2538 59.9987 48.8731 60.3174C49.4949 60.6335 50.1699 61.1556 50.898 61.8837C51.3126 62.2983 51.744 62.7867 52.1923 63.349C52.2234 63.3905 52.2014 63.4669 52.1262 63.5783C52.0511 63.6898 51.9397 63.8193 51.792 63.967ZM52.3128 59.0387C52.559 58.7459 52.7364 58.4829 52.8453 58.2497C52.9567 58.0139 53.0124 57.8131 53.0124 57.6472C53.0098 57.4788 52.9671 57.3532 52.8841 57.2702C52.7805 57.1666 52.6263 57.1394 52.4216 57.1886C52.2169 57.2327 51.9967 57.3726 51.7609 57.6084C51.6054 57.7638 51.4487 57.9647 51.2906 58.2108C51.6223 58.4958 51.963 58.7718 52.3128 59.0387ZM54.431 63.4268C54.2756 63.5822 54.1059 63.7027 53.9219 63.7882C53.7405 63.8711 53.5526 63.9009 53.3583 63.8776C53.1666 63.8517 52.9722 63.7584 52.7753 63.5978C51.8192 62.7971 50.9861 62.0418 50.2762 61.3318C49.4444 60.5001 48.7513 59.6852 48.1968 58.8871C48.0413 58.6332 48.031 58.3352 48.1657 57.9932C48.303 57.6485 48.4974 57.3506 48.7487 57.0992C48.9897 56.8582 49.2345 56.7093 49.4833 56.6523C49.7243 56.2247 49.9899 55.8658 50.2801 55.5756C50.6972 55.1585 51.1403 54.876 51.6093 54.7283C52.0783 54.5807 52.524 54.5496 52.9463 54.6351C53.3687 54.7206 53.7198 54.9032 53.9996 55.1831C54.2743 55.4577 54.4479 55.8153 54.5204 56.2558C54.5956 56.6937 54.5204 57.1938 54.295 57.7561C54.0696 58.3183 53.655 58.9273 53.0513 59.5828C53.5099 59.9067 53.9556 60.2125 54.3883 60.5001C54.834 60.8058 55.0698 60.9717 55.0957 60.9976C55.2382 61.1401 55.2965 61.359 55.2706 61.6544C55.2447 61.9498 55.1566 62.2607 55.0063 62.5872C54.856 62.9137 54.6642 63.1936 54.431 63.4268ZM58.3605 58.2147C58.1169 58.4583 57.8863 58.523 57.6687 58.409C57.4536 58.2924 57.2346 58.1642 57.0118 58.0243C56.9988 58.1149 56.9846 58.1914 56.969 58.2536C56.9535 58.3106 56.9289 58.3559 56.8952 58.3896C56.8175 58.4673 56.6892 58.5101 56.5104 58.5179C56.3316 58.5205 56.1528 58.4971 55.9741 58.4479C55.7953 58.3987 55.6631 58.3313 55.5776 58.2458C55.531 58.1992 55.5077 58.1473 55.5077 58.0903L55.5465 56.9321C55.0931 56.5512 54.6668 56.1612 54.2678 55.7622C53.265 54.7594 52.5564 53.8772 52.1418 53.1154C52.0796 52.9651 52.1262 52.7578 52.2817 52.4935C52.4372 52.2292 52.6315 51.9805 52.8647 51.7473C53.1031 51.5089 53.3169 51.3417 53.506 51.2459C53.6926 51.1474 53.8325 51.1448 53.9258 51.2381C54.1357 51.448 54.3326 51.6786 54.5165 51.9299C54.6979 52.1787 54.8987 52.4132 55.119 52.6334C54.9791 51.8561 54.8184 51.115 54.637 50.4102C54.6111 50.2962 54.6422 50.1615 54.7303 50.006C54.821 49.848 54.9454 49.6899 55.1034 49.5318C55.2952 49.3401 55.5141 49.1704 55.7603 49.0227C56.0064 48.8698 56.2435 48.7752 56.4716 48.739C56.7022 48.7001 56.8887 48.7519 57.0312 48.8944C57.1815 49.0447 57.2916 49.3388 57.3616 49.7767C57.4316 50.2146 57.4743 50.7056 57.4899 51.2498C57.508 51.7913 57.5119 52.316 57.5015 52.8239C58.0664 52.4922 58.573 52.2188 59.0212 52.0038C59.7001 51.6773 60.1017 51.5762 60.2261 51.7006C60.3323 51.8069 60.4463 51.9597 60.5681 52.1592C60.6873 52.3562 60.7923 52.5648 60.8829 52.785C60.971 53.0027 61.028 53.2048 61.054 53.3913C61.0773 53.5753 61.0475 53.7087 60.9646 53.7917C60.8972 53.859 60.7508 53.9406 60.5254 54.0365C60.2973 54.1298 60.0356 54.2308 59.7403 54.3397C59.1909 54.5366 58.6986 54.7413 58.2633 54.9538C58.3955 55.0237 58.5289 55.082 58.6636 55.1287C58.7802 55.1675 58.8904 55.2129 58.994 55.2647C59.1002 55.3139 59.1987 55.3839 59.2894 55.4746C59.3801 55.5653 59.3917 55.7894 59.3244 56.147C59.2544 56.502 59.1313 56.879 58.9551 57.278C58.7815 57.6796 58.5833 57.9919 58.3605 58.2147ZM58.5587 48.3775C58.3281 48.6081 58.113 48.7713 57.9135 48.8672C57.7114 48.9605 57.5339 49.0007 57.381 48.9877C57.2282 48.9748 57.1051 48.9216 57.0118 48.8284C56.9107 48.7273 56.8512 48.5926 56.833 48.4241C56.8175 48.2531 56.8512 48.0666 56.9341 47.8645C57.0144 47.6598 57.1556 47.4564 57.3577 47.2542C57.5521 47.0599 57.7503 46.9265 57.9524 46.8539C58.1545 46.7762 58.341 46.7503 58.5121 46.7762C58.6831 46.7969 58.8204 46.8591 58.9241 46.9627C59.0121 47.0508 59.0653 47.1661 59.0834 47.3087C59.1015 47.4512 59.0704 47.6144 58.9901 47.7984C58.9098 47.9772 58.766 48.1702 58.5587 48.3775ZM63.0439 52.7073C62.8626 52.8886 62.6747 53.048 62.4804 53.1853C62.286 53.3227 62.1085 53.4172 61.9479 53.4691C61.7898 53.5183 61.6732 53.5053 61.5981 53.4302C60.9063 52.7021 60.195 51.9079 59.4643 51.0477C58.9901 50.4957 58.6261 50.085 58.3721 49.8156C58.2504 49.6627 58.2581 49.4373 58.3955 49.1393C58.5302 48.8387 58.709 48.577 58.9318 48.3542C59.0692 48.2168 59.2065 48.1158 59.3438 48.051C59.4837 47.9836 59.6029 47.9785 59.7014 48.0355C61.3986 49.0849 62.7421 50.0863 63.7319 51.0399C63.8433 51.1513 63.877 51.3016 63.8329 51.4907C63.7889 51.6799 63.6943 51.8833 63.5492 52.1009C63.4041 52.3134 63.2357 52.5155 63.0439 52.7073ZM65.3526 50.3286C65.0521 50.6292 64.7683 50.7523 64.5014 50.6978C64.0946 50.6072 63.5686 50.374 62.9235 49.9982C62.2809 49.6199 61.6344 49.1885 60.984 48.704C60.331 48.2168 59.8167 47.7854 59.441 47.4097C59.314 47.2827 59.2739 47.126 59.3205 46.9394C59.3645 46.7503 59.4617 46.552 59.612 46.3448C59.7597 46.1349 59.9242 45.9392 60.1056 45.7579C60.2922 45.5713 60.4839 45.4081 60.6808 45.2681C60.8778 45.1282 61.0591 45.0349 61.225 44.9883C61.3908 44.9365 61.5204 44.9572 61.6136 45.0505L61.7885 45.2332C61.887 44.3522 62.1552 43.6927 62.5931 43.2548C62.9688 42.8791 63.4611 42.6926 64.07 42.6952C64.6789 42.6926 65.3941 42.9232 66.2155 43.387C67.0343 43.8482 67.9476 44.5828 68.9556 45.5907C69.0126 45.6477 68.9517 45.8019 68.7729 46.0533C68.5941 46.3046 68.3635 46.5715 68.0811 46.8539C67.8427 47.0923 67.5888 47.3151 67.3193 47.5224C67.0498 47.7245 66.8011 47.8696 66.5731 47.9577C66.3424 48.0432 66.1675 48.0264 66.0484 47.9072C65.924 47.7777 65.7983 47.6416 65.6713 47.4991C65.5314 47.3281 65.3604 47.1415 65.1583 46.9394C64.8888 46.6699 64.6219 46.4342 64.3576 46.232C64.1193 46.061 63.9172 45.9652 63.7513 45.9444C63.5881 45.9211 63.4663 45.9496 63.386 46.0299C63.2746 46.1414 63.2448 46.3111 63.2966 46.5391C63.351 46.7645 63.4961 46.9951 63.7319 47.2309C63.9469 47.446 64.1918 47.652 64.4665 47.8489C64.7411 48.0458 65.0028 48.2194 65.2516 48.3697C65.4977 48.5174 65.6934 48.6327 65.8385 48.7156C65.9473 48.7778 66.0069 48.8141 66.0173 48.8245C66.0898 48.897 66.1015 49.0227 66.0522 49.2015C66.0004 49.3777 65.911 49.5707 65.7841 49.7806C65.6571 49.9853 65.5133 50.168 65.3526 50.3286ZM72.679 45.2176C72.2981 45.5985 71.8577 45.8499 71.3576 45.9716C70.8627 46.0934 70.3341 46.0571 69.7718 45.8628C69.2121 45.6659 68.6447 45.2798 68.0694 44.7046C67.9787 44.6139 67.9412 44.5012 67.9567 44.3664C67.9723 44.2317 68.0215 44.0918 68.1044 43.9467C68.1899 43.799 68.2923 43.6655 68.4115 43.5463C68.5281 43.4297 68.6537 43.3352 68.7885 43.2626C68.9232 43.1849 69.0554 43.146 69.1849 43.146C69.3119 43.1434 69.4246 43.1914 69.5231 43.2898C69.8521 43.6189 70.132 43.8599 70.3626 44.0127C70.5906 44.163 70.7759 44.2472 70.9184 44.2654C71.0635 44.2809 71.1723 44.2524 71.2449 44.1799C71.3459 44.0788 71.3653 43.9169 71.3032 43.694C71.241 43.466 71.0855 43.2095 70.8368 42.9245L69.7679 41.7079C69.5062 42.1199 69.2367 42.4645 68.9595 42.7418C68.563 43.1382 68.1679 43.4116 67.774 43.5619C67.3828 43.7096 67.02 43.7562 66.6858 43.7018C66.3515 43.6474 66.0691 43.5075 65.8385 43.282C65.5975 43.0411 65.4498 42.7664 65.3954 42.4581C65.341 42.1497 65.3565 41.8232 65.442 41.4786C65.5301 41.1314 65.6713 40.7803 65.8657 40.4253C66.0574 40.0678 66.2854 39.7205 66.5497 39.3837C66.814 39.0417 67.0926 38.7243 67.3854 38.4315C67.9865 37.8303 68.5203 37.4339 68.9867 37.2421C69.5619 37.0037 70.0607 37.0957 70.4831 37.5181C70.9495 37.9845 71.3913 38.4807 71.8084 39.0067C72.223 39.5301 72.5793 40.0678 72.8773 40.6197C73.1752 41.1664 73.3825 41.7105 73.4991 42.2521C73.6209 42.7936 73.6222 43.3157 73.503 43.8184C73.3838 44.3211 73.1092 44.7875 72.679 45.2176ZM68.4387 41.6846C68.6226 41.5006 68.8247 41.2338 69.045 40.884L68.7846 40.5847L68.6524 40.7168C68.2897 41.0796 68.0513 41.3698 67.9373 41.5875C67.8259 41.8025 67.7961 41.936 67.8479 41.9878C67.8868 42.0266 67.958 42.0228 68.0617 41.9761C68.1679 41.9269 68.2936 41.8297 68.4387 41.6846ZM76.2354 39.5625C75.7819 40.0159 75.3699 40.3502 74.9994 40.5653C74.7999 40.6715 74.5952 40.6896 74.3853 40.6197C74.1754 40.5445 73.985 40.4214 73.814 40.2504C73.5678 40.0043 73.3968 39.7348 73.3009 39.442C73.205 39.1492 73.2335 38.9264 73.3864 38.7735C73.5445 38.6154 73.7012 38.4794 73.8567 38.3654C74.0122 38.2462 74.1702 38.1348 74.3309 38.0311C74.66 37.8264 75.0098 37.5492 75.3803 37.1994C75.5383 37.0413 75.6407 36.9157 75.6873 36.8224C75.7314 36.7265 75.7379 36.663 75.7068 36.6319C75.6783 36.6034 75.6213 36.6034 75.5358 36.6319C75.4502 36.6604 75.3557 36.7187 75.252 36.8068L74.8711 37.1411C74.4928 37.4779 74.1288 37.7876 73.779 38.07C73.4266 38.3498 73.0871 38.5701 72.7607 38.7307C72.4368 38.8888 72.1245 38.9549 71.824 38.929C71.5182 38.903 71.2228 38.7476 70.9378 38.4626C70.658 38.1827 70.4753 37.8783 70.3898 37.5492C70.2991 37.2201 70.2822 36.8794 70.3393 36.527C70.3989 36.172 70.5155 35.817 70.6891 35.462C70.8601 35.1045 71.0725 34.7572 71.3265 34.4204C71.583 34.081 71.8589 33.7635 72.1543 33.4682C72.5041 33.1184 72.8656 32.8113 73.2387 32.547C73.389 32.4537 73.5872 32.4654 73.8334 32.582C74.0795 32.6986 74.3166 32.8709 74.5447 33.0989C74.7131 33.2673 74.8556 33.4487 74.9722 33.6431C75.0888 33.8374 75.1562 34.0265 75.1743 34.2105C75.1898 34.3919 75.1328 34.5474 75.0033 34.6769C74.5136 35.1666 74.0795 35.5851 73.7012 35.9323C73.4473 36.1707 73.218 36.3897 73.0133 36.5892C72.7956 36.8068 72.7205 36.9675 72.7879 37.0711C72.8216 37.1048 72.8889 37.0996 72.99 37.0556C73.0884 37.0089 73.2193 36.904 73.3825 36.7408L73.7479 36.3754C74.0122 36.1111 74.327 35.83 74.6923 35.532C75.0551 35.2314 75.4399 34.9917 75.8467 34.813C76.2561 34.6471 76.6383 34.5888 76.9933 34.6381C77.3482 34.6821 77.6372 34.8155 77.86 35.0384C78.0414 35.2198 78.1619 35.4543 78.2215 35.7419C78.2785 36.0269 78.2513 36.3547 78.1398 36.7252C77.9818 37.2149 77.724 37.7111 77.3664 38.2138C77.0088 38.7165 76.6318 39.166 76.2354 39.5625Z" fill="white"/>
</g>
<defs>
<clipPath id="clip0_1657_4456">
<rect width="123" height="123" fill="white"/>
</clipPath>
</defs>
</svg>
