<svg width="78" height="78" viewBox="0 0 78 78" fill="none" xmlns="http://www.w3.org/2000/svg">
<rect width="78" height="78" rx="39" fill="#282A2C"/>
<path fill-rule="evenodd" clip-rule="evenodd" d="M59.6114 52.7591C57.5705 52.708 55.5297 52.6571 53.4888 52.606C56.6733 49.8058 58.2422 46.2598 58.1955 41.9679C58.4684 38.7147 57.8306 35.6534 56.2822 32.784C55.6493 31.6918 54.7692 30.8627 53.6418 30.2967C52.5305 30.0704 51.408 29.9173 50.2744 29.8375C48.7796 28.4199 46.9939 27.6546 44.9171 27.5415C45.5709 26.0011 46.0301 24.4067 46.2947 22.7582C46.1578 22.7364 46.0302 22.7618 45.912 22.8347C45.4721 23.5425 44.9364 24.1674 44.3048 24.7098C43.9654 24.905 43.6083 25.0581 43.2333 25.169C42.867 25.2362 42.5099 25.2107 42.1619 25.0924C41.8104 24.7085 41.568 24.262 41.4348 23.7531C41.0627 22.086 40.6545 20.4278 40.2103 18.7785C39.9042 17.9621 39.598 17.9621 39.2919 18.7785C38.8341 20.5077 38.4004 22.2424 37.9908 23.9827C37.8685 24.3678 37.6772 24.7122 37.4168 25.0159C36.7335 25.2949 36.0702 25.2439 35.427 24.8628C34.6853 24.2741 34.0475 23.5853 33.5137 22.7964C33.3903 22.7413 33.2755 22.754 33.1693 22.8347C33.4716 24.4491 33.9435 26.018 34.5851 27.5415C32.4913 27.6577 30.68 28.4231 29.1513 29.8375C27.9536 29.8664 26.7801 30.045 25.6308 30.3732C24.7575 30.8892 24.0305 31.5652 23.4496 32.4013C21.6808 35.4278 20.9665 38.6933 21.3066 42.1975C21.4253 44.1086 21.7824 45.9709 22.3781 47.7844C23.0355 49.2439 23.9157 50.5449 25.0185 51.6876C23.8219 51.827 22.5974 51.8908 21.3449 51.879C22.6457 51.9172 23.9468 51.93 25.2481 51.9172C25.516 52.1722 25.7965 52.4145 26.09 52.6443C19.8142 52.6953 13.5385 52.6953 7.26284 52.6443C6.89158 52.0672 6.62371 51.4422 6.45924 50.7692C4.00204 40.7431 5.27759 31.2275 10.2859 22.2224C14.7781 14.7716 21.1432 9.63116 29.3809 6.80104C39.8009 3.83294 49.4441 5.44013 58.3103 11.6226C65.3064 16.9727 69.8602 23.9499 71.9715 32.5544C73.0047 38.1164 73.0047 43.6778 71.9715 49.2386C71.7013 50.3956 71.3952 51.5436 71.0531 52.6826C67.2446 52.7589 63.4308 52.7844 59.6114 52.7591Z" fill="#FEAB02"/>
<path fill-rule="evenodd" clip-rule="evenodd" d="M46.5287 12.9624C46.6274 13.0051 46.6912 13.0816 46.72 13.192C46.6518 13.7406 46.8303 14.1742 47.2558 14.4931C47.2812 14.5696 47.3068 14.6461 47.3323 14.7227C47.6206 14.7891 47.914 14.8401 48.2124 14.8757C48.2124 14.9523 48.2124 15.0288 48.2124 15.1053C47.9052 15.0926 47.5991 15.1054 47.294 15.1436C47.1517 15.4007 46.9476 15.5921 46.6818 15.7176C46.5564 16.0381 46.4799 16.3698 46.4522 16.7125C46.3756 16.7125 46.2991 16.7125 46.2226 16.7125C46.2352 16.4307 46.2225 16.1502 46.1843 15.8707C45.9704 15.6052 45.7535 15.3373 45.5338 15.0671C44.5107 14.7983 44.5362 14.6452 45.6103 14.6079C45.7506 14.3655 45.9419 14.1741 46.1843 14.0339C46.3327 13.6874 46.4475 13.3302 46.5287 12.9624Z" fill="#FFFDFA"/>
<path fill-rule="evenodd" clip-rule="evenodd" d="M39.406 14.2636C40.7985 14.139 41.5893 14.764 41.7785 16.1386C41.4052 17.7769 40.4358 18.2871 38.8703 17.6693C37.7516 16.6177 37.7516 15.5718 38.8703 14.5314C39.0559 14.4386 39.2345 14.3494 39.406 14.2636Z" fill="#FEFBF6"/>
<path fill-rule="evenodd" clip-rule="evenodd" d="M28.626 14.5693C28.732 14.6515 28.8212 14.7536 28.8939 14.8755C28.8933 15.8317 29.3652 16.2654 30.3097 16.1765C30.3097 16.2531 30.3097 16.3296 30.3097 16.4061C30.0001 16.3793 29.7066 16.4304 29.4296 16.5592C29.3599 16.7946 29.2196 16.9732 29.0087 17.0949C28.9653 17.4125 28.8887 17.7186 28.7791 18.0133C28.7342 17.9973 28.696 17.9718 28.6643 17.9368C28.6388 17.7072 28.6132 17.4776 28.5877 17.248C28.4669 17.1301 28.3265 17.0407 28.1668 16.9801C28.062 16.8698 27.9854 16.7423 27.9372 16.5975C27.6821 16.5209 27.427 16.4444 27.1719 16.3679C27.3996 16.2145 27.6546 16.138 27.9372 16.1383C28.3901 15.7231 28.6196 15.2 28.626 14.5693Z" fill="#FFFBF3"/>
<path fill-rule="evenodd" clip-rule="evenodd" d="M39.6351 14.7227C40.7573 14.7348 41.2804 15.2961 41.2043 16.4067C40.7934 17.4283 40.0917 17.6962 39.0993 17.2104C38.5328 16.6721 38.418 16.047 38.7548 15.335C38.996 15.0433 39.2894 14.8392 39.6351 14.7227Z" fill="#074E1B"/>
<path fill-rule="evenodd" clip-rule="evenodd" d="M39.7175 19.085C40.1895 20.6945 40.6105 22.3272 40.9803 23.9831C41.5692 25.8261 42.7044 26.2471 44.386 25.2459C44.6028 25.08 44.8197 24.9142 45.0365 24.7484C45.0876 24.876 45.0876 25.0035 45.0365 25.1311C44.7393 25.9334 44.4969 26.7497 44.3095 27.5801C43.9289 27.6507 43.5463 27.6634 43.1615 27.6184C42.0585 27.0339 40.885 26.6895 39.6409 26.5852C38.4842 26.7369 37.3873 27.0813 36.35 27.6184C35.9652 27.6634 35.5826 27.6507 35.202 27.5801C34.9085 26.6113 34.6407 25.6419 34.3984 24.6719C35.1465 25.4351 36.0522 25.7795 37.1154 25.7051C37.478 25.6194 37.7714 25.4281 37.9955 25.1311C38.2735 24.6801 38.4776 24.1955 38.6078 23.6769C38.954 22.1389 39.3239 20.6082 39.7175 19.085Z" fill="#054E1B"/>
<path fill-rule="evenodd" clip-rule="evenodd" d="M32.8238 19.7734C34.3562 19.8287 34.8538 20.5687 34.3165 21.9933C33.7782 22.5598 33.153 22.6746 32.4411 22.3378C31.8038 21.7984 31.6634 21.1478 32.0201 20.3858C32.2478 20.1142 32.5157 19.9101 32.8238 19.7734Z" fill="#FEFCF7"/>
<path fill-rule="evenodd" clip-rule="evenodd" d="M45.92 19.7741C47.2972 19.7603 47.8458 20.4236 47.5658 21.7644C47.0602 22.5438 46.384 22.7352 45.5373 22.3385C44.7535 21.5956 44.728 20.8301 45.4607 20.0421C45.6312 19.97 45.7843 19.8807 45.92 19.7741Z" fill="#FEFCF7"/>
<path fill-rule="evenodd" clip-rule="evenodd" d="M61.369 22.6827C61.661 22.7579 61.9672 22.8089 62.2874 22.8358C62.3129 22.8358 62.3384 22.8358 62.3639 22.8358C62.3639 22.9378 62.3639 23.0399 62.3639 23.1419C61.8648 23.1172 61.3801 23.1427 60.9097 23.2185C60.8215 23.395 60.7322 23.5736 60.6419 23.7542C60.4172 23.9162 60.2131 24.0949 60.0296 24.29C59.8862 24.7132 59.797 25.147 59.7617 25.5911C59.6393 25.6116 59.5373 25.586 59.4555 25.5146C59.4682 25.0801 59.4555 24.6464 59.4173 24.2134C59.388 24.1709 59.3497 24.1454 59.3025 24.1369C58.8841 23.9345 58.6162 23.6029 58.4988 23.1419C58.4475 23.0844 58.3837 23.0588 58.3075 23.0654C58.0549 22.9014 57.7742 22.7994 57.4656 22.7592C57.4336 22.704 57.3826 22.6657 57.3125 22.6444C57.7301 22.5721 58.1383 22.5083 58.5371 22.4531C58.7163 22.0571 59.0097 21.7764 59.4173 21.6112C59.4945 21.4945 59.5328 21.3669 59.5321 21.2285C59.6258 21.1786 59.6769 21.0893 59.6851 20.9606C59.7171 20.7694 59.7426 20.5781 59.7617 20.3866C59.7824 20.2479 59.8335 20.1204 59.9148 20.0039C59.9896 20.0404 60.0534 20.0914 60.1061 20.157C60.2022 20.659 60.2532 21.1693 60.2592 21.6877C60.5492 21.9137 60.7661 22.1944 60.9097 22.5296C61.0478 22.6267 61.2009 22.6777 61.369 22.6827Z" fill="#FFFDF9"/>
<path fill-rule="evenodd" clip-rule="evenodd" d="M33.052 20.2324C33.9324 20.3602 34.2258 20.8449 33.9323 21.6868C33.4447 22.1879 32.9598 22.1879 32.4779 21.6868C32.1585 20.9989 32.3499 20.5141 33.052 20.2324Z" fill="#0D501C"/>
<path fill-rule="evenodd" clip-rule="evenodd" d="M46.1454 20.2334C46.7496 20.2544 47.1068 20.5606 47.217 21.152C47.1356 21.7055 46.8166 22.0117 46.2602 22.0705C45.4716 21.8459 45.242 21.3611 45.5713 20.6161C45.7374 20.4383 45.9288 20.3107 46.1454 20.2334Z" fill="#10511C"/>
<path fill-rule="evenodd" clip-rule="evenodd" d="M59.7687 20.3857C59.7496 20.5773 59.7241 20.7686 59.6922 20.9598C59.6839 21.0885 59.6328 21.1778 59.5391 21.2278C59.5576 20.9232 59.6341 20.6425 59.7687 20.3857Z" fill="#FFE6B6"/>
<path fill-rule="evenodd" clip-rule="evenodd" d="M58.5357 22.4531C58.1368 22.5084 57.7286 22.5722 57.3109 22.6445C57.381 22.6658 57.432 22.7041 57.464 22.7593C57.3875 22.7593 57.3109 22.7593 57.2344 22.7593C57.2344 22.6828 57.2344 22.6062 57.2344 22.5297C57.6653 22.4691 58.0991 22.4436 58.5357 22.4531Z" fill="#FFDD9A"/>
<path fill-rule="evenodd" clip-rule="evenodd" d="M61.3672 22.6816C61.6976 22.6497 62.0038 22.7007 62.2857 22.8347C61.9655 22.8078 61.6593 22.7567 61.3672 22.6816Z" fill="#FFD88B"/>
<path fill-rule="evenodd" clip-rule="evenodd" d="M57.4648 22.7588C57.7736 22.799 58.0543 22.901 58.3069 23.065C57.9874 23.0522 57.7067 22.9502 57.4648 22.7588Z" fill="#FFDF9E"/>
<path fill-rule="evenodd" clip-rule="evenodd" d="M62.3724 22.835C62.5035 22.9218 62.5545 23.0494 62.5254 23.2177C61.9896 23.2177 61.4538 23.2177 60.918 23.2177C61.3883 23.1419 61.8731 23.1164 62.3724 23.1411C62.3724 23.0391 62.3724 22.937 62.3724 22.835Z" fill="#FFCE6E"/>
<path fill-rule="evenodd" clip-rule="evenodd" d="M59.3086 24.1353C59.3558 24.1438 59.3941 24.1692 59.4234 24.2118C59.4616 24.6448 59.4744 25.0786 59.4617 25.5131C59.4044 25.0641 59.3535 24.6048 59.3086 24.1353Z" fill="#FFE0A3"/>
<path fill-rule="evenodd" clip-rule="evenodd" d="M39.1789 26.9683C41.4925 26.9326 43.3421 27.8256 44.7275 29.647C45.1422 30.2976 45.5376 30.9609 45.9138 31.6368C45.7647 30.2173 45.127 29.0438 44.0005 28.1163C46.9214 27.9507 49.2301 29.0476 50.9267 31.4072C51.1983 31.8993 51.4279 32.4095 51.6155 32.9379C51.8667 33.8443 52.1473 34.7372 52.4574 35.6165C52.5847 34.9497 52.5592 34.2865 52.3808 33.6267C52.0563 32.5059 51.5589 31.4727 50.8885 30.5271C52.1251 30.3834 53.2731 30.6385 54.3324 31.2924C55.1543 32.0128 55.8049 32.8675 56.284 33.8563C57.5468 36.6627 58.006 39.5964 57.6616 42.6576C57.4922 47.1559 55.5661 50.6637 51.8834 53.1809C51.2872 53.5429 50.6494 53.7979 49.9701 53.9462C49.0752 53.9992 48.1822 53.9737 47.2914 53.8697C48.118 53.4004 48.7302 52.7371 49.1282 51.8798C49.1027 51.867 49.0771 51.8543 49.0517 51.8415C48.508 52.2191 47.9978 52.6401 47.521 53.1043C46.1623 53.9669 44.6827 54.2985 43.0821 54.0993C43.7048 53.6179 44.164 53.0184 44.4597 52.3007C44.4342 52.2752 44.4086 52.2497 44.3831 52.2242C43.7595 52.7585 43.1472 53.307 42.5464 53.8697C41.1024 54.723 39.5717 54.9016 37.9544 54.4054C37.7184 54.3182 37.4888 54.2162 37.2656 54.0993C36.5385 53.4742 35.8115 52.8492 35.0844 52.2242C35.3128 52.9908 35.7592 53.6159 36.4237 54.0993C34.8606 54.3107 33.4065 54.0046 32.0613 53.1809C31.5591 52.6912 31.0234 52.2447 30.4541 51.8415C30.4287 51.867 30.4031 51.8926 30.3776 51.9181C30.7368 52.7747 31.3236 53.4252 32.1379 53.8697C31.2468 53.9705 30.354 53.996 29.4592 53.9462C28.2146 53.5919 27.1176 52.9797 26.1683 52.1094C23.4188 49.6327 21.9774 46.5331 21.8442 42.8106C21.3821 39.0745 22.1219 35.605 24.0636 32.4022C24.3544 32.0347 24.6733 31.6903 25.0203 31.369C25.4957 31.1185 25.9805 30.8889 26.4744 30.6802C27.1553 30.4989 27.8441 30.4606 28.5408 30.5654C27.6188 31.8901 27.083 33.3569 26.9336 34.966C26.9246 35.1977 26.9629 35.4146 27.0484 35.6165C27.3956 34.3711 27.8037 33.1466 28.273 31.943C29.2587 30.1668 30.7256 28.9805 32.6736 28.3842C33.6006 28.1168 34.5444 28.0148 35.5053 28.078C34.4232 28.9821 33.76 30.1301 33.5155 31.522C33.5409 31.5603 33.5665 31.5986 33.592 31.6368C33.9619 30.9991 34.3318 30.3612 34.7017 29.7235C35.3934 28.7713 36.2735 28.0442 37.3421 27.5423C37.9563 27.3256 38.5686 27.1342 39.1789 26.9683Z" fill="#FF8002"/>
<path fill-rule="evenodd" clip-rule="evenodd" d="M13.3827 34.9274C13.2699 34.8375 13.1424 34.7609 13 34.6978C13.0128 34.6723 13.0255 34.6467 13.0383 34.6213C13.3117 34.5958 13.5541 34.5192 13.7654 34.3916C13.8827 34.0571 14.0995 33.8019 14.4159 33.6263C14.476 33.4924 14.5398 33.3648 14.6073 33.2436C14.6928 32.9531 14.7437 32.647 14.7603 32.3252C14.7492 32.1382 14.8129 32.0872 14.9517 32.1721C15.1636 32.6021 15.2656 33.0614 15.2578 33.5497C15.5913 33.7684 15.8592 34.049 16.0615 34.3916C16.4648 34.4644 16.873 34.49 17.2861 34.4682C17.3024 34.594 17.2769 34.7088 17.2095 34.8126C16.8277 34.8508 16.445 34.8636 16.0615 34.8509C15.9619 35.3291 15.694 35.6863 15.2578 35.9224C15.1619 36.326 15.0981 36.7341 15.0665 37.147C14.9422 37.1577 14.853 37.1066 14.7986 36.9939C14.7548 36.6611 14.7037 36.3295 14.6455 35.9989C14.1735 35.8331 13.8547 35.5142 13.6888 35.0422C13.5696 35.0261 13.4676 34.9879 13.3827 34.9274Z" fill="#FFFDF7"/>
<path fill-rule="evenodd" clip-rule="evenodd" d="M14.7678 32.3257C14.7512 32.6476 14.7002 32.9537 14.6147 33.2442C14.5828 32.9138 14.6338 32.6076 14.7678 32.3257Z" fill="#FFDE9D"/>
<path fill-rule="evenodd" clip-rule="evenodd" d="M32.6024 33.0138C32.6829 33.0024 32.7594 33.0151 32.832 33.0521C33.2045 33.3989 33.5489 33.7689 33.8652 34.1619C34.7797 35.459 35.7236 36.7346 36.6971 37.9887C36.7346 38.0877 36.7474 38.1898 36.7354 38.2949C34.2867 38.3732 31.8376 38.3859 29.3878 38.3331C29.226 38.3007 29.1622 38.2114 29.1965 38.0652C30.3515 36.3925 31.4868 34.7086 32.6024 33.0138Z" fill="#FFFEFD"/>
<path fill-rule="evenodd" clip-rule="evenodd" d="M46.6773 33.0145C46.7785 33.0015 46.8678 33.027 46.9452 33.0911C48.0487 34.7626 49.1713 36.4209 50.3128 38.066C50.3471 38.2121 50.2833 38.3014 50.1214 38.3338C47.6717 38.3882 45.2225 38.3754 42.7739 38.2956C42.7619 38.1905 42.7747 38.0884 42.8122 37.9894C44.0272 36.2735 45.3156 34.6151 46.6773 33.0145Z" fill="#FFFEFD"/>
<path fill-rule="evenodd" clip-rule="evenodd" d="M13.7654 34.3916C13.554 34.5192 13.3116 34.5958 13.0382 34.6212C13.0254 34.6467 13.0127 34.6723 12.9999 34.6978C13.1423 34.7609 13.2698 34.8375 13.3827 34.9274C13.1091 34.9128 12.8539 34.8363 12.6172 34.6978C12.7253 34.5978 12.8529 34.534 12.9999 34.5064C13.2616 34.4874 13.5168 34.4492 13.7654 34.3916Z" fill="#FFEFCC"/>
<path fill-rule="evenodd" clip-rule="evenodd" d="M39.6378 37.5288C39.8761 37.574 40.0674 37.7016 40.2118 37.9115C40.6199 38.5237 41.0281 39.136 41.4363 39.7483C41.4914 39.8716 41.4787 39.9864 41.398 40.0927C40.8572 40.1793 40.3087 40.2176 39.7526 40.2075C39.2551 40.1947 38.7576 40.182 38.2602 40.1692C37.9998 40.0325 37.9615 39.8412 38.1454 39.5952C38.6299 38.8943 39.1274 38.2055 39.6378 37.5288Z" fill="#FFFDFC"/>
<path fill-rule="evenodd" clip-rule="evenodd" d="M24.793 39.3662C25.2308 39.8426 25.69 40.3145 26.1706 40.7821C26.7957 41.184 27.4334 41.5667 28.0839 41.9301C28.6406 42.4244 28.9339 43.0494 28.964 43.8051C29.2122 44.4203 29.6587 44.6371 30.3033 44.4557C30.4736 44.4127 30.6267 44.3362 30.7625 44.2261C31.0336 43.72 31.276 43.1971 31.4896 42.6571C32.2578 42.0489 32.9977 42.1 33.7091 42.8102C34.0424 43.4035 34.1954 44.0412 34.1683 44.7235C34.2964 45.2788 34.6408 45.4957 35.2015 45.3741C35.6304 45.2383 35.8345 44.9449 35.8137 44.4939C35.7082 43.8709 35.5551 43.2587 35.3545 42.6571C35.3738 42.3446 35.5269 42.1278 35.8137 42.0066C36.5569 41.9103 37.2711 42.0124 37.9566 42.3127C38.3541 42.5576 38.5581 42.9147 38.5689 43.3842C38.5341 43.7592 38.4703 44.1291 38.3776 44.4939C38.3265 44.8001 38.3265 45.1062 38.3776 45.4123C38.4467 45.5042 38.5359 45.5681 38.6454 45.6036C39.3597 45.6547 40.0741 45.6547 40.7884 45.6036C41.0991 45.5063 41.2267 45.2895 41.171 44.9531C41.132 44.5666 41.0682 44.1839 40.9797 43.8051C40.8306 43.2415 40.9709 42.7695 41.4006 42.3893C42.099 42.0251 42.8388 41.8975 43.6201 42.0066C43.7998 42.0331 43.9401 42.1224 44.041 42.2745C44.0921 42.5551 44.0921 42.8357 44.041 43.1163C43.863 43.548 43.7482 43.9945 43.6966 44.4557C43.7366 45.1842 44.1193 45.4903 44.8446 45.3741C44.9813 45.314 45.0961 45.2247 45.189 45.1062C45.3102 44.4108 45.4633 43.722 45.6482 43.0398C46.2152 42.2213 46.9422 42.0299 47.8294 42.4658C47.9536 42.625 48.0684 42.7908 48.1738 42.9633C48.2791 43.4672 48.4959 43.9136 48.8243 44.3026C49.2443 44.5257 49.6781 44.5512 50.1254 44.3791C50.2691 44.261 50.3839 44.1207 50.4698 43.9582C50.5501 43.3251 50.7542 42.7383 51.0821 42.1979C51.7259 41.7291 52.402 41.3082 53.1102 40.9351C53.6745 40.4984 54.1592 39.9882 54.5643 39.4045C54.6395 39.3592 54.6906 39.3848 54.7174 39.481C53.8626 43.2119 52.0768 46.4007 49.3601 49.0476C49.0401 49.2727 48.7212 49.2855 48.4034 49.0859C48.3081 48.6351 48.2571 48.1759 48.2503 47.7083C47.9273 47.489 47.6466 47.54 47.4085 47.8614C47.2572 48.2816 47.1551 48.7153 47.1023 49.1624C46.9365 49.6344 46.6177 49.9532 46.1457 50.1191C42.7494 51.1534 39.3054 51.3575 35.8137 50.7314C34.7527 50.6241 33.7577 50.318 32.8289 49.813C32.6867 49.6937 32.5719 49.5534 32.4845 49.392C32.3543 48.9393 32.2522 48.4801 32.1784 48.0144C31.8961 47.4898 31.5645 47.4388 31.1835 47.8614C31.1494 48.1046 31.1622 48.347 31.2217 48.5884C31.2357 49.1361 30.9806 49.3402 30.4564 49.2007C30.2319 49.1034 30.0279 48.9758 29.8441 48.818C27.2691 46.1559 25.5854 43.0053 24.793 39.3662Z" fill="#FFFEFE"/>
<path fill-rule="evenodd" clip-rule="evenodd" d="M25.0173 51.6875C25.1194 51.7385 25.1959 51.8151 25.2469 51.9171C23.9456 51.9299 22.6446 51.9171 21.3438 51.8788C22.5962 51.8907 23.8207 51.8269 25.0173 51.6875Z" fill="#FFC60C"/>
<path fill-rule="evenodd" clip-rule="evenodd" d="M53.4851 52.6055C55.5261 52.6565 57.567 52.7075 59.6081 52.7585C57.5159 52.7713 55.4239 52.7585 53.332 52.7203C53.3737 52.6654 53.4247 52.6271 53.4851 52.6055Z" fill="#FFE15D"/>
<path d="M20.1179 64.1959C20.2939 64.0744 20.382 63.9319 20.382 63.7682C20.382 63.5649 20.2543 63.3715 19.9989 63.188C20.0212 63.5252 20.0609 63.8612 20.1179 64.1959ZM18.9538 67.2233C18.7233 67.2233 18.5832 67.1464 18.5336 66.9927C18.2807 66.1323 18.1542 65.1133 18.1542 63.9356C18.1542 63.586 18.1642 63.2513 18.184 62.9314C18.127 62.9463 18.0637 62.9674 17.9943 62.9947C17.8555 63.0517 17.7526 63.0802 17.6856 63.0802C17.6013 63.0802 17.5207 63.0232 17.4439 62.9091C17.367 62.7951 17.3038 62.6575 17.2542 62.4963C17.2046 62.3351 17.1798 62.1851 17.1798 62.0463C17.1798 61.843 17.2356 61.724 17.3472 61.6893C18.0861 61.476 18.7518 61.3694 19.3443 61.3694C19.7807 61.3694 20.1588 61.4227 20.4787 61.5293C20.801 61.6359 21.0663 61.7798 21.2745 61.9607C21.4828 62.1393 21.6378 62.3438 21.7394 62.5744C21.8411 62.805 21.8919 63.0442 21.8919 63.2922C21.8919 63.6963 21.7642 64.0918 21.5089 64.4786C21.2535 64.8629 20.884 65.1716 20.4006 65.4046C20.4452 65.546 20.4973 65.696 20.5568 65.8546C20.5989 65.9637 20.6349 66.0641 20.6646 66.1559C20.6969 66.2476 20.713 66.3146 20.713 66.3567C20.713 66.4435 20.6113 66.5563 20.408 66.6951C20.2047 66.8315 19.9654 66.953 19.6902 67.0596C19.415 67.1687 19.1695 67.2233 18.9538 67.2233ZM25.7858 66.7918C25.5155 66.7918 25.3135 66.7633 25.1796 66.7063C25.0457 66.6468 24.949 66.5513 24.8895 66.4199C24.8325 66.2885 24.7841 66.1162 24.7445 65.903C24.4717 66.1311 24.194 66.3034 23.9114 66.4199C23.6287 66.534 23.3585 66.591 23.1006 66.591C22.818 66.591 22.5626 66.5216 22.3345 66.3827C22.1064 66.2439 21.9254 66.0356 21.7915 65.7579C21.6576 65.4778 21.5907 65.1282 21.5907 64.7092C21.5907 64.0571 21.763 63.2971 22.1076 62.4294C22.1647 62.3054 22.2799 62.2124 22.4535 62.1504C22.6295 62.086 22.8192 62.0537 23.0225 62.0537C23.1762 62.0537 23.3238 62.0723 23.4651 62.1095C23.6064 62.1442 23.7229 62.1975 23.8147 62.2694C23.9064 62.3389 23.9523 62.4281 23.9523 62.5372C23.9523 62.7306 23.9387 62.9413 23.9114 63.1695C23.8792 63.524 23.863 63.8141 23.863 64.0397C23.863 64.667 23.9498 64.9806 24.1234 64.9806C24.3242 64.9806 24.4568 64.755 24.5213 64.3038C24.5635 64.0038 24.5845 63.5786 24.5845 63.0281C24.5845 62.7455 24.592 62.5347 24.6069 62.3959C24.6316 62.2694 24.711 62.1802 24.8449 62.1281C24.9812 62.0736 25.1374 62.0463 25.3135 62.0463C25.5317 62.0463 25.7523 62.0674 25.9755 62.1095C26.1986 62.1492 26.3858 62.2074 26.5371 62.2843C26.6908 62.3612 26.7676 62.4541 26.7676 62.5632C26.7676 62.6699 26.754 62.8149 26.7267 62.9984C26.6995 63.1819 26.6672 63.3852 26.63 63.6083C26.5829 63.8959 26.5383 64.1885 26.4961 64.486C26.454 64.7835 26.4329 65.0464 26.4329 65.2745C26.4329 65.4232 26.4565 65.6724 26.5036 66.022C26.5358 66.2402 26.5519 66.4013 26.5519 66.5055C26.5519 66.5823 26.4763 66.6493 26.3251 66.7063C26.1738 66.7633 25.9941 66.7918 25.7858 66.7918ZM33.5438 66.7733C33.3083 66.7733 33.0368 66.7485 32.7293 66.6989C32.4244 66.6468 32.1603 66.5687 31.9372 66.4646C31.714 66.3604 31.5963 66.229 31.5839 66.0703C31.5764 65.5249 31.5727 64.9534 31.5727 64.3558C31.5727 64.1699 31.5492 64.0273 31.502 63.9281C31.4574 63.829 31.4091 63.7794 31.357 63.7794C31.3124 63.7794 31.2715 63.8191 31.2343 63.8984C31.1971 63.9753 31.1785 64.0967 31.1785 64.2629L31.2082 66.498C31.2082 66.5551 31.1165 66.6047 30.933 66.6468C30.7495 66.689 30.5338 66.71 30.2859 66.71C30.1024 66.71 29.9177 66.6951 29.7318 66.6654C29.5483 66.6332 29.3958 66.5811 29.2743 66.5092C29.1528 66.4373 29.0921 66.3406 29.0921 66.2191C29.0921 65.8472 29.1082 65.4207 29.1404 64.9397C29.1578 64.6447 29.1665 64.4389 29.1665 64.3224C29.1665 64.1761 29.1553 64.0707 29.133 64.0062C29.1131 63.9393 29.0859 63.9058 29.0512 63.9058C28.9991 63.9058 28.9408 63.9728 28.8764 64.1067C28.8144 64.2381 28.7598 64.4203 28.7127 64.6534C28.6681 64.8864 28.6458 65.153 28.6458 65.453C28.6458 65.5497 28.6545 65.6736 28.6718 65.8249C28.6892 65.9761 28.7065 66.1162 28.7239 66.2451C28.7412 66.3716 28.7499 66.4472 28.7499 66.472C28.7499 66.5538 28.6631 66.6245 28.4896 66.684C28.316 66.7435 28.114 66.7733 27.8834 66.7733C27.4743 66.7733 27.2177 66.6704 27.1135 66.4646C26.9747 66.1695 26.8681 65.7059 26.7937 65.0736C26.7193 64.4389 26.6821 63.8401 26.6821 63.2773C26.6821 62.9352 26.697 62.6426 26.7267 62.3996C26.749 62.2657 26.8333 62.1715 26.9796 62.117C27.1284 62.0624 27.2982 62.0351 27.4891 62.0351C27.6949 62.0351 27.9032 62.055 28.114 62.0946C28.3247 62.1318 28.502 62.1876 28.6458 62.262C28.7896 62.3339 28.8615 62.4207 28.8615 62.5223V62.7529C29.2458 62.4207 29.6028 62.2546 29.9326 62.2546C30.121 62.2546 30.2946 62.3128 30.4533 62.4294C30.6144 62.5434 30.7545 62.7194 30.8735 62.9575C31.4388 62.5261 31.957 62.3103 32.4281 62.3103C32.7529 62.3103 33.0417 62.4182 33.2946 62.6339C33.55 62.8496 33.7496 63.1819 33.8934 63.6306C34.0397 64.0794 34.1128 64.6521 34.1128 65.3488C34.1128 65.7455 34.0856 66.1856 34.031 66.6691C34.0261 66.7038 33.979 66.7299 33.8897 66.7472C33.8004 66.7646 33.6851 66.7733 33.5438 66.7733ZM36.1509 64.6645C36.4088 64.6422 36.6195 64.6013 36.7831 64.5418C36.9493 64.4823 37.072 64.4129 37.1513 64.3335C37.2307 64.2517 37.2703 64.1711 37.2703 64.0918C37.2703 63.9926 37.2096 63.9058 37.0881 63.8315C36.9691 63.7546 36.7968 63.7162 36.5712 63.7162C36.4224 63.7162 36.2513 63.7372 36.0579 63.7794C36.0802 64.0744 36.1112 64.3695 36.1509 64.6645ZM35.0649 67.7774C34.9162 67.7774 34.7773 67.7538 34.6484 67.7067C34.5219 67.6596 34.4178 67.584 34.336 67.4799C34.2566 67.3757 34.2083 67.2381 34.1909 67.0671C34.1166 66.2265 34.0794 65.4666 34.0794 64.7873C34.0794 63.9914 34.1376 63.2699 34.2542 62.6227C34.3013 62.4269 34.4389 62.2794 34.667 62.1802C34.8976 62.081 35.1331 62.0314 35.3736 62.0314C35.6042 62.0314 35.7926 62.0773 35.9389 62.169C36.2588 62.0798 36.5575 62.0351 36.8352 62.0351C37.2344 62.0351 37.5815 62.112 37.8766 62.2657C38.1716 62.4194 38.3997 62.6178 38.5609 62.8608C38.722 63.1037 38.8026 63.3591 38.8026 63.6269C38.8026 63.8897 38.7146 64.1439 38.5386 64.3893C38.365 64.6348 38.0898 64.8381 37.7129 64.9992C37.3361 65.1604 36.8464 65.2534 36.2439 65.2782C36.3083 65.6526 36.3753 66.0121 36.4447 66.3567C36.5117 66.7162 36.5451 66.9084 36.5451 66.9332C36.5451 67.0695 36.4683 67.2022 36.3145 67.3311C36.1608 67.46 35.9699 67.5667 35.7418 67.651C35.5137 67.7353 35.2881 67.7774 35.0649 67.7774ZM39.4386 67.1638C39.2055 67.1638 39.0642 67.0844 39.0146 66.9257C38.9675 66.7671 38.9241 66.6009 38.8844 66.4274C38.8348 66.4646 38.7915 66.4943 38.7543 66.5166C38.7196 66.5365 38.6861 66.5464 38.6538 66.5464C38.5795 66.5464 38.4976 66.5055 38.4084 66.4237C38.3216 66.3394 38.2472 66.2427 38.1852 66.1336C38.1233 66.0245 38.0923 65.929 38.0923 65.8472C38.0923 65.8026 38.1059 65.7666 38.1332 65.7393L38.7059 65.2038C38.6712 64.8046 38.6538 64.4141 38.6538 64.0323C38.6538 63.0728 38.7369 62.3116 38.903 61.7488C38.9452 61.6471 39.0667 61.5702 39.2675 61.5182C39.4683 61.4661 39.6803 61.4401 39.9035 61.4401C40.1316 61.4401 40.3138 61.4624 40.4502 61.507C40.5865 61.5492 40.6547 61.6149 40.6547 61.7041C40.6547 61.905 40.6386 62.1095 40.6064 62.3178C40.5741 62.5236 40.558 62.7318 40.558 62.9426C40.863 62.5037 41.1407 62.0723 41.3911 61.6483C41.4332 61.5814 41.5126 61.5318 41.6291 61.4996C41.7481 61.4674 41.8833 61.4512 42.0345 61.4512C42.218 61.4512 42.4039 61.4748 42.5924 61.5219C42.7833 61.5665 42.942 61.6347 43.0684 61.7264C43.1973 61.8182 43.2618 61.9322 43.2618 62.0686C43.2618 62.2124 43.1738 62.4058 42.9977 62.6488C42.8217 62.8918 42.6072 63.1471 42.3543 63.4149C42.1039 63.6827 41.8547 63.9356 41.6068 64.1736C42.0357 64.2852 42.4089 64.3968 42.7263 64.5083C43.2073 64.6769 43.4478 64.8207 43.4478 64.9397C43.4478 65.0414 43.4292 65.1691 43.392 65.3228C43.3548 65.474 43.3052 65.6241 43.2432 65.7728C43.1812 65.9191 43.1118 66.0431 43.0349 66.1447C42.9581 66.2439 42.88 66.2935 42.8006 66.2935C42.7362 66.2935 42.6271 66.2625 42.4734 66.2005C42.3196 66.136 42.1461 66.0592 41.9527 65.9699C41.5956 65.8013 41.2622 65.6637 40.9522 65.5571C40.982 65.6538 41.0179 65.7455 41.0601 65.8323C41.0973 65.9067 41.1283 65.9811 41.1531 66.0555C41.1804 66.1298 41.194 66.2104 41.194 66.2972C41.194 66.384 41.0923 66.4968 40.889 66.6356C40.6857 66.772 40.4464 66.8935 40.1712 67.0001C39.896 67.1092 39.6518 67.1638 39.4386 67.1638ZM44.2399 62.5521C44.0193 62.5521 43.8383 62.5273 43.6969 62.4777C43.5556 62.4256 43.4515 62.3599 43.3845 62.2806C43.3176 62.2013 43.2841 62.117 43.2841 62.0277C43.2841 61.931 43.3201 61.838 43.392 61.7488C43.4663 61.6595 43.5717 61.5864 43.7081 61.5293C43.8445 61.4698 44.0093 61.4401 44.2027 61.4401C44.3887 61.4401 44.5474 61.4711 44.6788 61.5331C44.8127 61.5926 44.9143 61.6694 44.9837 61.7636C45.0556 61.8554 45.0916 61.9508 45.0916 62.05C45.0916 62.1343 45.0618 62.2149 45.0023 62.2917C44.9428 62.3686 44.8498 62.4318 44.7234 62.4814C44.5994 62.5285 44.4383 62.5521 44.2399 62.5521ZM44.3143 66.7695C44.1407 66.7695 43.9746 66.7559 43.8159 66.7286C43.6573 66.7013 43.5271 66.6617 43.4254 66.6096C43.3263 66.5575 43.2767 66.4956 43.2767 66.4237C43.294 65.7443 43.3337 65.024 43.3957 64.2629C43.4329 63.7719 43.4552 63.4013 43.4626 63.1509C43.4775 63.0195 43.5891 62.9153 43.7973 62.8385C44.0056 62.7591 44.2164 62.7194 44.4296 62.7194C44.561 62.7194 44.6751 62.7368 44.7717 62.7715C44.8709 62.8062 44.9304 62.8608 44.9503 62.9352C45.2602 64.2492 45.4238 65.3712 45.4412 66.3009C45.4412 66.4075 45.3854 66.4956 45.2738 66.565C45.1623 66.6344 45.0197 66.6865 44.8461 66.7212C44.6751 66.7534 44.4978 66.7695 44.3143 66.7695ZM46.5569 66.7361C46.2693 66.7361 46.0747 66.6592 45.973 66.5055C45.8218 66.2675 45.6817 65.9042 45.5528 65.4158C45.4263 64.9273 45.3234 64.4116 45.2441 63.8686C45.1647 63.3232 45.1251 62.8707 45.1251 62.5112C45.1251 62.3897 45.1808 62.2955 45.2924 62.2285C45.404 62.1591 45.5453 62.1108 45.7164 62.0835C45.8875 62.0537 46.0598 62.0389 46.2334 62.0389C46.4119 62.0389 46.5817 62.0525 46.7429 62.0798C46.904 62.107 47.0354 62.1492 47.1371 62.2062C47.2412 62.2608 47.2933 62.3327 47.2933 62.4219L47.2896 62.593C47.7582 62.2186 48.202 62.0314 48.621 62.0314C48.9805 62.0314 49.3053 62.1777 49.5954 62.4703C49.888 62.7604 50.1198 63.2128 50.2909 63.8277C50.462 64.4401 50.5475 65.2286 50.5475 66.1931C50.5475 66.2476 50.4446 66.2922 50.2388 66.327C50.033 66.3617 49.795 66.379 49.5247 66.379C49.2966 66.379 49.0685 66.3642 48.8404 66.3344C48.6148 66.3022 48.4264 66.2526 48.2751 66.1856C48.1239 66.1162 48.0483 66.0245 48.0483 65.9104C48.0507 65.7889 48.0557 65.6637 48.0631 65.5348C48.078 65.386 48.0855 65.215 48.0855 65.0216C48.0855 64.7637 48.0706 64.5232 48.0408 64.3001C48.0086 64.1042 47.9578 63.9616 47.8883 63.8724C47.8214 63.7831 47.7495 63.7385 47.6726 63.7385C47.566 63.7385 47.4706 63.8054 47.3863 63.9393C47.3044 64.0732 47.2635 64.2529 47.2635 64.4786C47.2635 64.6844 47.2821 64.9001 47.3193 65.1257C47.3565 65.3513 47.3987 65.5596 47.4458 65.7505C47.4929 65.9389 47.5313 66.0877 47.5611 66.1968C47.5834 66.2786 47.5945 66.3245 47.5945 66.3344C47.5945 66.4038 47.54 66.4695 47.4309 66.5315C47.3218 66.591 47.1867 66.6406 47.0255 66.6803C46.8668 66.7175 46.7106 66.7361 46.5569 66.7361ZM52.5075 67.796C52.143 67.796 51.812 67.7055 51.5145 67.5245C51.2194 67.346 50.9839 67.0757 50.8078 66.7137C50.6343 66.3518 50.5475 65.8955 50.5475 65.3451C50.5475 65.2583 50.5834 65.1864 50.6553 65.1294C50.7272 65.0724 50.8177 65.029 50.9268 64.9992C51.0384 64.9695 51.1512 64.9546 51.2653 64.9546C51.3768 64.9546 51.4822 64.9695 51.5814 64.9992C51.6831 65.0265 51.7649 65.0711 51.8269 65.1331C51.8888 65.1926 51.9198 65.2695 51.9198 65.3637C51.9198 65.6786 51.9384 65.9278 51.9756 66.1113C52.0128 66.2922 52.0612 66.4212 52.1207 66.498C52.1827 66.5749 52.2484 66.6133 52.3178 66.6133C52.4145 66.6133 52.5013 66.5451 52.5781 66.4088C52.6575 66.2699 52.7058 66.0728 52.7232 65.8174L52.7938 64.724C52.4715 64.7959 52.1777 64.8319 51.9124 64.8319C51.5331 64.8319 51.2132 64.7736 50.9529 64.6571C50.695 64.5406 50.4991 64.3893 50.3653 64.2034C50.2314 64.0174 50.1632 63.8153 50.1607 63.5971C50.1607 63.3666 50.2215 63.1645 50.3429 62.9909C50.4644 62.8174 50.6281 62.6686 50.8339 62.5446C51.0421 62.4207 51.2777 62.3203 51.5405 62.2434C51.8033 62.1641 52.0785 62.107 52.3661 62.0723C52.6562 62.0351 52.9413 62.0165 53.2215 62.0165C53.7967 62.0165 54.2418 62.0822 54.5567 62.2136C54.9459 62.3748 55.1406 62.6575 55.1406 63.0616C55.1406 63.5079 55.1145 63.9567 55.0625 64.4079C55.0104 64.8567 54.9236 65.2844 54.8021 65.691C54.6831 66.0951 54.522 66.4546 54.3186 66.7695C54.1178 67.0869 53.8686 67.3373 53.5711 67.5208C53.2736 67.7043 52.919 67.796 52.5075 67.796ZM52.169 64.0769C52.3451 64.0769 52.5694 64.0459 52.8422 63.9839L52.8608 63.7162H52.7343C52.3872 63.7162 52.1343 63.741 51.9756 63.7905C51.8194 63.8401 51.7413 63.8897 51.7413 63.9393C51.7413 63.9765 51.7773 64.0087 51.8492 64.036C51.9236 64.0633 52.0302 64.0769 52.169 64.0769ZM56.9146 66.7918C56.4807 66.7918 56.1236 66.7547 55.8435 66.6803C55.6972 66.6356 55.5906 66.5464 55.5236 66.4125C55.4592 66.2761 55.4269 66.1261 55.4269 65.9625C55.4269 65.7269 55.474 65.5162 55.5683 65.3302C55.6625 65.1443 55.7827 65.0513 55.929 65.0513C56.0803 65.0513 56.2203 65.0612 56.3493 65.0811C56.4807 65.0984 56.6096 65.1207 56.7361 65.148C56.9914 65.2075 57.2914 65.2422 57.6361 65.2521C57.7873 65.2521 57.8964 65.241 57.9634 65.2187C58.0303 65.1939 58.0638 65.1666 58.0638 65.1369C58.0638 65.1096 58.0365 65.0823 57.982 65.055C57.9274 65.0278 57.8543 65.0104 57.7625 65.003L57.4204 64.9806C57.0782 64.9608 56.7559 64.9348 56.4534 64.9025C56.1509 64.8678 55.8831 64.8108 55.6501 64.7315C55.4195 64.6521 55.2385 64.5344 55.1071 64.3782C54.9732 64.2195 54.9063 64.0038 54.9063 63.731C54.9063 63.4633 54.9645 63.2302 55.0811 63.0318C55.1951 62.831 55.3501 62.6599 55.5459 62.5186C55.7443 62.3773 55.9699 62.2632 56.2228 62.1765C56.4757 62.0872 56.7435 62.0227 57.0261 61.9831C57.3113 61.9434 57.5952 61.9236 57.8778 61.9236C58.2125 61.9236 58.5324 61.9496 58.8373 62.0017C58.9539 62.0289 59.0431 62.1293 59.1051 62.3029C59.1671 62.4765 59.1981 62.6723 59.1981 62.8905C59.1981 63.0517 59.1795 63.2066 59.1423 63.3554C59.1051 63.5042 59.0468 63.6269 58.9675 63.7236C58.8882 63.8178 58.7865 63.8649 58.6625 63.8649C58.1939 63.8649 57.7861 63.8575 57.439 63.8426C57.2034 63.8352 56.989 63.8302 56.7956 63.8277C56.5873 63.8277 56.4745 63.8686 56.4571 63.9505C56.4571 63.9827 56.4918 64.0124 56.5613 64.0397C56.6307 64.0645 56.7435 64.0769 56.8997 64.0769H57.2493C57.5022 64.0769 57.7873 64.093 58.1047 64.1253C58.422 64.155 58.7208 64.2244 59.001 64.3335C59.2762 64.4501 59.4869 64.605 59.6332 64.7984C59.782 64.9893 59.8564 65.1914 59.8564 65.4046C59.8564 65.5782 59.8018 65.748 59.6927 65.9141C59.5836 66.0778 59.4138 66.2216 59.1832 66.3456C58.8733 66.5042 58.5125 66.6183 58.101 66.6877C57.6894 66.7571 57.2939 66.7918 56.9146 66.7918Z" fill="white"/>
</svg>
